<?xml version="1.0" standalone="no"?>
<!DOCTYPE svg PUBLIC "-//W3C//DTD SVG 20010904//EN"
 "http://www.w3.org/TR/2001/REC-SVG-20010904/DTD/svg10.dtd">
<svg version="1.0" xmlns="http://www.w3.org/2000/svg"
 width="2000.000000pt" height="480.000000pt" viewBox="0 0 2000.000000 480.000000"
 preserveAspectRatio="xMidYMid meet">
<metadata>
Created by potrace 1.16, written by Peter Selinger 2001-2019
</metadata>
<g transform="translate(0.000000,480.000000) scale(0.100000,-0.100000)"
fill="#000000" stroke="none">
<path d="M0 3858 c0 -530 4 -968 9 -1002 5 -34 14 -99 20 -146 49 -392 61
-458 87 -510 140 -279 238 -468 250 -480 12 -12 14 -12 14 3 0 15 4 15 44 -5
24 -13 39 -26 33 -30 -6 -3 -21 1 -34 9 -20 14 -23 14 -29 0 -3 -9 -2 -22 2
-29 4 -7 4 -10 -1 -6 -4 4 -15 -3 -25 -14 l-17 -22 -29 29 c-16 17 -36 44 -44
60 -8 17 -20 37 -26 45 -21 26 -84 150 -84 165 0 8 -4 15 -8 15 -5 0 -13 12
-20 28 -10 23 -11 19 -6 -32 3 -33 8 -64 10 -70 6 -14 -48 -98 -56 -88 -4 4
-12 48 -19 97 -7 50 -14 99 -16 110 -2 11 -4 33 -4 48 -1 16 -5 26 -10 22 -6
-3 -16 16 -24 42 l-15 48 -1 -81 c-1 -66 2 -83 15 -88 8 -3 12 -10 9 -16 -4
-6 -11 -8 -16 -5 -5 4 -9 -41 -9 -110 0 -97 2 -116 14 -112 8 3 20 -1 27 -9
10 -12 8 -14 -12 -12 l-24 3 -3 -252 -2 -252 25 -25 c14 -14 31 -23 38 -20 8
3 14 -2 14 -11 0 -18 -2 -18 -27 -5 -23 12 -50 3 -50 -16 0 -11 4 -12 19 -5
22 12 48 -10 35 -30 -4 -7 -3 -9 3 -6 9 6 22 -21 23 -45 0 -21 -32 -4 -41 21
-6 16 -17 32 -24 35 -12 4 -14 -83 -15 -549 l0 -555 2006 0 c1474 0 2010 3
2020 11 9 7 14 8 14 1 0 -6 43 -10 109 -11 l109 -2 -34 68 c-18 37 -34 78 -34
91 0 12 -5 22 -11 22 -5 0 -7 5 -4 11 14 21 -52 101 -175 212 -33 30 -64 77
-42 63 4 -2 9 5 9 17 2 15 0 18 -6 8 -5 -8 -8 2 -8 27 0 50 -23 143 -33 137
-12 -7 2 38 16 52 9 10 8 20 -5 46 -13 27 -18 31 -24 18 -4 -10 -6 -4 -4 16 2
19 -1 30 -7 26 -5 -4 -7 0 -4 8 3 8 -5 34 -17 59 -13 25 -32 64 -43 87 -11 23
-35 56 -52 73 -17 16 -28 30 -25 30 9 0 -14 21 -59 55 -22 17 -37 26 -34 20 3
-5 2 -19 -3 -30 -7 -19 -8 -19 -8 2 -1 12 -7 23 -13 25 -9 3 -8 9 4 21 21 21
39 14 62 -23 9 -17 22 -30 27 -30 6 0 7 4 4 10 -3 5 0 7 8 4 8 -3 17 -14 20
-25 3 -10 13 -19 22 -19 9 0 14 -4 11 -8 -3 -5 3 -18 12 -28 21 -22 87 -134
88 -149 1 -16 22 -63 40 -91 12 -17 19 -21 24 -13 4 6 13 8 19 4 9 -5 7 -11
-6 -21 -15 -11 -15 -13 -3 -14 9 0 26 -7 38 -16 18 -12 20 -19 11 -35 -8 -17
-6 -27 16 -54 33 -44 107 -119 131 -134 16 -9 14 -10 -11 -4 -27 6 -29 5 -16
-10 7 -10 19 -44 26 -76 10 -49 10 -61 -1 -65 -8 -3 -15 6 -19 25 -4 16 -11
29 -16 29 -13 0 -11 -34 3 -48 7 -7 8 -12 4 -12 -5 0 10 -19 33 -41 47 -47 47
-68 1 -24 l-30 29 0 -26 c0 -15 4 -28 9 -30 10 -4 61 -84 61 -97 0 -5 17 -46
37 -90 l37 -80 453 -1 c265 0 453 3 453 9 0 5 11 12 24 15 14 3 28 15 31 26 3
11 13 20 21 20 8 0 13 4 9 9 -3 5 3 17 12 27 17 17 18 15 31 -32 7 -27 15 -55
17 -61 3 -10 88 -13 377 -13 289 0 369 3 360 12 -15 15 -16 38 -2 38 6 0 10
-7 10 -17 0 -14 2 -14 20 2 20 18 21 18 36 -3 20 -29 54 -13 54 26 1 24 3 22
15 -13 8 -22 15 -41 15 -41 0 -5 190 -3 190 2 0 4 -5 25 -12 47 -10 35 -10 41
6 52 24 18 56 -8 48 -38 -5 -20 -6 -20 -13 -1 -5 12 -8 14 -8 4 -1 -23 15 -43
28 -36 6 4 11 18 11 32 0 17 5 24 20 24 10 0 27 8 37 18 50 49 99 77 138 77
35 0 40 3 39 22 -1 13 3 20 7 17 5 -3 6 -10 3 -16 -5 -7 -2 -9 8 -5 9 3 21 0
27 -6 9 -9 14 -9 19 0 4 6 32 15 62 18 40 5 51 4 40 -4 -9 -7 -10 -11 -3 -11
6 0 15 5 18 11 5 7 14 4 26 -7 10 -9 19 -14 19 -9 0 16 -36 34 -66 35 -56 0
-124 13 -124 22 0 5 4 7 8 4 5 -3 37 -6 73 -7 35 -1 77 -7 93 -12 22 -8 31 -7
34 1 5 17 29 15 36 -3 4 -10 -1 -15 -17 -16 -18 -1 -19 -2 -4 -6 18 -5 18 -5
0 -19 -16 -14 -16 -14 6 -4 28 14 47 -4 28 -26 -29 -32 -33 -40 -29 -52 2 -7
0 -12 -5 -11 -4 1 -16 -1 -27 -6 -31 -13 -38 16 -10 42 28 26 30 33 9 33 -8 0
-15 -5 -15 -10 0 -6 -12 -8 -27 -4 -21 4 -24 3 -13 -5 12 -8 12 -12 -3 -29 -9
-10 -17 -26 -17 -34 0 -16 -44 -33 -60 -23 -4 3 -10 0 -12 -5 -2 -6 -20 -12
-40 -13 -20 -1 -34 -5 -31 -9 6 -11 -5 -10 -27 2 -15 8 -18 7 -14 -3 3 -9 -8
-17 -33 -24 -27 -7 348 -11 1328 -12 1346 -1 1366 -1 1389 19 35 31 20 52 -32
44 -24 -4 -51 -13 -60 -21 -22 -20 -41 -7 -35 23 2 13 0 24 -4 24 -5 0 -9 11
-9 25 l0 25 37 -15 c42 -18 85 -13 77 9 -4 10 6 12 48 8 29 -3 54 -8 56 -12 1
-4 10 -16 18 -26 9 -10 13 -13 9 -7 -9 18 2 16 33 -7 15 -10 43 -22 62 -25 19
-3 36 -8 39 -10 2 -2 13 1 24 6 13 8 26 8 41 1 11 -6 34 -15 50 -19 32 -10 47
-33 22 -33 -9 0 -16 5 -16 10 0 15 -61 11 -90 -5 -22 -12 73 -14 751 -15 l776
0 31 39 c22 27 29 45 26 62 -5 21 -4 22 6 7 14 -23 21 -23 48 2 12 12 22 18
22 14 0 -3 6 -2 13 4 17 15 156 62 181 62 25 0 16 -9 -14 -15 -13 -3 -26 -9
-29 -14 -3 -4 -23 -17 -43 -28 -21 -11 -35 -23 -33 -27 3 -3 -1 -2 -7 4 -16
14 -31 13 -22 -2 5 -7 2 -9 -8 -6 -9 4 -30 -6 -52 -23 -20 -17 -40 -27 -46
-24 -5 3 -10 2 -10 -4 0 -5 8 -12 18 -14 12 -3 11 -5 -6 -6 -13 0 -21 -5 -18
-10 4 -5 0 -12 -6 -14 -7 -3 10 -6 39 -6 43 -1 67 7 149 49 53 27 100 47 105
44 5 -3 9 0 9 5 0 6 6 11 13 11 6 -1 1 -9 -13 -20 -14 -11 -35 -29 -46 -41
-12 -11 -33 -22 -47 -22 -14 -1 -23 -5 -21 -9 2 -3 -4 -8 -13 -11 -10 -2 190
-5 444 -6 l461 -1 24 30 c21 27 42 36 154 66 92 25 139 34 164 29 19 -4 58 -7
85 -7 43 0 45 -1 17 -7 -30 -5 -31 -7 -14 -18 16 -9 23 -8 39 6 15 14 39 18
133 20 63 1 145 3 183 4 37 2 67 0 67 -4 0 -4 -26 -7 -57 -7 -63 1 -129 -9
-153 -23 -15 -9 -3 -8 65 6 14 3 25 1 25 -5 0 -5 -4 -10 -10 -10 -5 0 -9 -5
-7 -11 1 -6 -20 -19 -47 -28 -76 -26 -71 -41 13 -41 64 0 71 2 71 20 0 17 7
20 40 20 28 0 40 -4 40 -14 0 -8 -6 -17 -12 -19 -7 -3 680 -6 1526 -6 1356 -1
1538 1 1520 14 -15 11 -16 14 -3 15 8 0 21 16 29 35 8 19 18 35 23 35 4 0 20
-13 34 -30 13 -16 34 -30 45 -30 11 0 22 -8 25 -20 5 -20 14 -20 404 -20 259
0 399 4 399 10 0 6 -4 10 -8 10 -12 0 -92 126 -92 145 0 8 6 15 14 15 8 0 53
20 99 44 54 29 93 43 108 40 13 -2 18 -2 11 2 -19 9 15 31 177 118 120 64 146
74 160 64 16 -13 139 -130 223 -215 26 -26 44 -52 41 -57 -3 -6 -2 -8 2 -3 8
7 85 -60 85 -74 0 -4 -32 -26 -70 -49 -39 -23 -70 -44 -70 -46 0 -2 269 -4
597 -4 536 1 599 2 615 17 10 9 18 11 18 5 0 -6 -6 -13 -13 -15 -9 -4 -9 -6 0
-6 6 -1 18 8 26 19 8 11 17 17 20 13 4 -3 7 0 7 8 0 19 74 92 83 83 4 -4 7 -3
7 2 0 6 7 19 15 30 14 18 15 18 7 -6 -5 -13 -17 -29 -27 -35 -39 -23 -75 -64
-64 -71 8 -5 9 -3 5 5 -6 8 -2 11 10 9 11 -2 19 3 19 12 1 8 7 14 15 12 8 -2
12 0 8 4 -5 4 6 16 23 26 17 11 27 23 23 30 -5 7 -3 8 7 3 7 -5 29 -11 49 -15
30 -4 35 -10 38 -35 l4 -30 13 25 c14 27 6 55 -23 76 -12 9 -12 13 -2 19 9 6
11 4 5 -5 -6 -9 -4 -11 4 -5 9 5 10 10 2 18 -6 6 -11 15 -11 21 0 5 3 6 7 3 3
-4 14 0 24 9 16 15 36 21 69 23 12 1 12 3 2 10 -7 4 -12 12 -11 17 5 27 -1 36
-16 24 -8 -7 -12 -17 -8 -23 3 -6 1 -7 -6 -3 -6 4 -20 2 -29 -5 -9 -6 3 6 28
27 24 22 45 38 46 38 1 -1 37 31 79 72 43 40 83 70 88 67 6 -3 7 -1 3 5 -3 6
-2 13 4 17 5 3 10 1 10 -5 0 -6 5 -8 12 -4 10 6 10 4 0 -8 -7 -8 -10 -23 -6
-31 3 -9 -1 -29 -10 -44 -9 -15 -20 -46 -25 -68 -5 -22 -9 -30 -10 -18 -1 17
-6 20 -22 16 -20 -6 -20 -7 -5 -18 9 -7 16 -15 16 -19 0 -4 7 -15 16 -23 14
-15 13 -17 -16 -30 -39 -16 -43 -16 -35 -3 7 12 -10 11 -45 -1 l-25 -8 25 2
c47 4 50 -14 8 -66 -42 -53 -51 -80 -16 -47 12 11 26 20 30 20 5 0 7 4 4 8 -3
5 2 9 10 9 9 0 13 -6 9 -14 -3 -8 -5 -17 -5 -19 0 -2 -7 -4 -17 -4 -9 0 -13
-3 -10 -7 9 -8 -52 -53 -73 -53 -16 0 -60 -39 -60 -53 0 -4 11 -7 25 -7 14 0
25 5 25 10 0 6 5 10 11 10 5 0 7 -5 4 -10 -4 -7 102 -10 309 -10 l316 0 0 654
c0 514 -3 655 -12 659 -10 4 -10 6 0 6 7 1 12 15 12 36 0 21 -5 35 -12 35 -9
0 -9 3 -3 8 6 4 12 26 14 49 2 42 2 42 -36 46 l-38 4 37 1 c36 2 36 2 34 45
-2 37 -5 42 -24 39 -12 -2 -22 2 -22 8 0 6 11 8 25 6 24 -4 25 -2 25 39 0 24
-4 47 -10 50 -5 3 -10 13 -10 21 0 8 5 12 10 9 6 -4 10 6 10 22 0 22 -2 25
-10 13 -8 -13 -10 -13 -10 2 0 9 6 19 12 21 7 3 4 6 -7 7 l-20 1 20 10 c15 7
6 8 -30 5 -33 -3 -43 -2 -30 4 11 5 32 9 48 9 15 1 27 5 27 11 0 5 -8 7 -17 4
-17 -5 -17 -5 0 6 15 10 17 28 17 141 0 102 -3 128 -12 122 -14 -8 -19 -9 -55
-11 -15 -2 -21 -7 -17 -17 4 -10 0 -15 -12 -15 -16 0 -17 2 -4 11 11 8 5 9
-25 4 -22 -4 -43 -12 -47 -18 -5 -9 -10 -9 -18 -1 -8 8 15 18 87 36 l98 24 2
1347 3 1347 -1123 -2 -1122 -3 -1 -22 c-1 -13 3 -23 8 -23 5 0 7 8 4 18 -4 13
-1 19 9 19 18 0 18 -2 3 -30 -15 -29 -40 -48 -56 -42 -7 3 -10 0 -7 -5 3 -6 1
-10 -4 -10 -6 0 -11 9 -11 21 0 23 -21 22 -28 -2 -3 -11 -2 -11 7 1 9 13 11
13 11 -2 0 -25 -41 -23 -69 3 -17 17 -22 29 -17 50 l6 29 -1302 0 c-1011 0
-1305 -3 -1317 -13 -12 -9 -13 -9 -7 1 4 7 1 12 -8 12 -9 0 -16 -7 -16 -15 0
-8 9 -15 19 -15 11 0 23 -5 27 -11 4 -8 -1 -9 -16 -4 -19 6 -22 4 -17 -9 4 -9
3 -16 -2 -16 -5 0 -12 16 -15 35 l-7 35 -91 0 c-79 0 -95 -3 -114 -21 l-22
-21 -11 21 c-10 18 -21 21 -81 21 -40 0 -70 -4 -70 -10 0 -5 -6 -10 -14 -10
-8 0 -17 -7 -20 -16 -8 -21 -29 -6 -23 17 5 18 -9 19 -459 19 -255 0 -464 -4
-464 -9 0 -12 20 -71 36 -107 7 -16 25 -68 40 -114 14 -46 41 -123 60 -172 39
-104 40 -105 17 -110 -17 -3 -43 43 -73 132 -5 14 -30 84 -55 155 -25 72 -53
151 -62 178 l-16 47 -294 0 c-244 0 -293 -2 -293 -14 0 -8 -7 -16 -15 -20 -10
-4 -15 1 -15 14 0 20 -7 20 -297 18 l-298 -3 -5 -30 -6 -30 -7 33 -6 32 -371
0 c-215 0 -370 -4 -370 -9 0 -5 -20 -33 -44 -63 -24 -30 -46 -63 -49 -73 -4
-11 -4 -3 -1 17 2 20 1 39 -4 42 -4 2 -7 23 -6 45 l1 41 -617 0 c-575 0 -618
-1 -632 -17 -9 -10 -18 -25 -21 -33 -4 -12 -6 -11 -6 3 -1 11 -6 15 -13 11 -7
-4 -8 -3 -4 5 4 6 11 9 16 6 4 -3 13 2 20 10 9 11 7 14 -12 13 -13 -1 -29 -6
-37 -12 -11 -8 -13 -8 -8 0 9 16 -130 19 -149 3 -10 -8 -14 -8 -14 0 0 13
-1276 16 -1284 2 -3 -4 -20 -7 -38 -5 -18 1 -64 5 -102 9 -59 5 -68 4 -57 -8
6 -8 32 -18 56 -21 25 -4 47 -12 51 -17 3 -6 18 -10 32 -9 47 3 47 1 2 -45
l-43 -44 -71 3 c-39 2 -87 8 -106 12 -32 7 -34 6 -21 -9 11 -14 11 -17 0 -17
-10 -1 -8 -5 5 -15 20 -15 14 -37 -9 -29 -11 5 -13 -1 -10 -26 3 -26 1 -31
-12 -26 -14 6 -14 4 -2 -11 12 -15 12 -16 -1 -8 -42 24 -70 48 -65 56 4 5 -2
6 -11 2 -14 -5 -16 -3 -11 11 4 10 3 15 -4 11 -5 -4 -16 -2 -23 4 -9 8 -29 8
-62 2 -41 -8 -112 -8 -121 0 -3 1 -17 5 -30 8 -3 0 2 10 12 21 12 13 18 37 19
69 0 27 4 47 7 45 4 -2 7 8 7 21 l0 25 -2646 0 c-2457 0 -2647 -2 -2664 -17
-18 -16 -18 -16 -12 0 5 14 0 17 -34 17 -23 0 -43 -5 -45 -12 -4 -10 -6 -10
-6 0 -1 9 -275 12 -1336 12 l-1335 0 0 -942z m9020 907 c-6 -16 -6 -25 0 -25
14 0 12 -27 -2 -53 -20 -35 -38 -121 -27 -131 12 -13 12 -29 0 -21 -5 3 -13 1
-16 -5 -4 -6 -21 -8 -40 -4 -21 4 -35 1 -40 -7 -6 -9 -1 -10 19 -5 14 3 26 4
26 0 0 -3 -16 -28 -35 -54 -19 -26 -35 -53 -35 -59 0 -6 -4 -11 -10 -11 -5 0
-10 -6 -10 -12 1 -7 10 -2 20 11 11 13 20 20 20 17 0 -4 10 2 22 14 12 11 23
18 26 16 7 -8 -30 -56 -39 -50 -5 3 -9 0 -9 -6 0 -5 -25 -22 -55 -36 -30 -15
-55 -31 -55 -38 0 -6 -16 -31 -35 -55 -37 -46 -43 -61 -23 -61 6 0 -13 -25
-44 -55 -30 -30 -59 -55 -63 -55 -4 0 -26 -20 -49 -45 -24 -25 -45 -45 -48
-45 -2 0 -24 -18 -48 -40 -23 -22 -47 -37 -53 -33 -6 3 -7 2 -4 -4 4 -5 -6
-20 -21 -33 -15 -13 -36 -30 -46 -39 -11 -9 -16 -11 -13 -4 4 6 3 15 -3 18 -6
4 -9 1 -8 -7 2 -7 -2 -12 -8 -11 -6 1 -11 -4 -11 -12 0 -8 5 -12 10 -8 5 3 1
-7 -8 -21 -13 -20 -14 -26 -4 -24 9 2 15 -15 21 -62 4 -36 14 -110 22 -165 9
-55 18 -149 21 -210 4 -63 13 -123 21 -140 10 -19 11 -31 4 -33 -5 -2 -8 -7
-5 -12 8 -13 -55 -72 -71 -66 -9 3 -12 1 -9 -4 17 -27 -121 -54 -150 -30 -7 6
-14 7 -18 4 -10 -10 -47 7 -47 22 0 10 5 12 13 8 9 -6 9 -4 -1 8 -10 13 -10
17 0 21 9 4 8 6 -3 6 -17 1 -30 21 -28 44 0 7 4 2 9 -10 12 -30 30 -30 23 0
-15 76 -28 117 -46 157 -11 25 -20 49 -18 54 2 11 -20 68 -29 76 -11 8 -30
119 -24 135 3 8 -1 22 -10 30 -9 9 -16 24 -16 33 0 15 2 15 10 2 11 -17 13 -1
4 25 -5 12 -9 13 -14 5 -5 -8 -9 -7 -13 4 -4 10 -1 16 8 16 8 0 15 9 15 20 0
14 -7 20 -24 20 -13 0 -26 6 -29 13 -3 6 -3 -8 -1 -33 l3 -45 -11 43 c-8 33
-8 46 1 51 8 6 8 15 0 40 -9 25 -9 35 0 44 9 9 11 7 6 -8 -8 -24 26 29 42 66
16 37 -7 89 -41 89 -15 0 -26 -7 -28 -17 -3 -10 -8 21 -12 68 -7 85 -1 159 14
159 5 0 6 -10 3 -22 -4 -22 -4 -22 10 -5 13 16 16 16 30 2 31 -30 113 8 136
63 13 32 47 57 56 42 3 -6 22 -10 41 -10 19 0 34 -4 34 -9 0 -11 38 -20 98
-23 43 -2 63 -14 46 -27 -5 -3 -7 -42 -4 -86 l5 -80 8 50 c5 28 13 67 18 87
11 43 65 102 86 94 9 -4 13 0 11 12 -2 10 3 16 10 14 7 -1 24 11 38 27 14 16
37 31 51 33 26 3 46 28 23 28 -6 0 -8 -4 -5 -10 3 -5 -2 -10 -12 -10 -14 1
-12 6 12 25 28 24 47 30 70 25 56 -12 59 -12 45 7 -8 10 1 3 19 -14 18 -18 37
-30 43 -27 5 4 5 10 0 17 -15 18 -32 87 -22 87 5 0 12 -4 15 -10 3 -5 12 -10
18 -10 8 0 8 3 -2 9 -10 7 -11 13 -2 30 7 11 14 21 17 21 3 0 2 -6 -2 -12 -6
-10 -4 -10 7 -2 8 6 28 16 44 22 l30 10 -27 1 c-19 1 -28 6 -28 17 0 14 -3 14
-15 4 -8 -7 -15 -11 -15 -8 0 2 32 32 71 67 47 43 74 60 80 54 7 -7 1 -14 -20
-21 -16 -6 -37 -22 -46 -36 -9 -14 -25 -28 -35 -31 -18 -6 -18 -35 1 -35 4 0
5 7 2 17 -4 10 -2 14 5 9 6 -3 16 3 22 14 6 11 17 20 25 20 8 0 15 5 15 10 0
6 14 19 30 29 26 16 28 20 16 30 -13 11 -11 16 14 37 16 14 32 24 37 24 4 -1
10 8 15 19 4 12 10 21 12 21 3 0 1 -11 -4 -25z m-1899 -114 c49 -48 86 -91 83
-94 -3 -3 1 -4 8 -3 7 0 51 -39 98 -88 77 -80 83 -89 67 -100 -11 -6 -46 -28
-78 -49 -33 -21 -65 -35 -71 -31 -6 4 -8 3 -5 -3 9 -14 -61 -56 -76 -47 -7 4
-9 4 -5 -1 11 -12 -30 -40 -194 -130 -104 -57 -125 -69 -147 -86 -13 -11 -27
-19 -32 -19 -5 0 -39 46 -76 103 -38 56 -80 117 -93 135 -21 28 -22 34 -10 43
13 8 12 9 -2 7 -12 -2 -34 20 -68 67 -50 69 -62 105 -36 105 14 0 215 99 238
117 7 6 58 34 113 64 55 29 118 63 140 76 22 12 44 23 49 23 5 0 49 -40 97
-89z m4456 -167 c-3 -3 -2 -16 3 -29 5 -13 11 -63 14 -112 4 -48 9 -105 12
-126 21 -134 21 -222 -1 -243 -13 -13 -16 -28 -12 -63 4 -40 1 -50 -29 -89
-25 -34 -32 -51 -28 -71 3 -16 -3 -9 -15 18 -22 45 -27 66 -11 41 6 -9 10 -10
10 -3 0 6 -4 15 -10 18 -6 4 -7 27 -4 56 4 36 3 49 -6 49 -10 0 -11 18 -7 72
4 40 3 67 -2 60 -4 -7 -6 23 -3 67 2 50 0 81 -7 85 -6 4 -11 12 -11 17 0 6 4
7 10 4 6 -4 7 2 2 17 -13 35 -6 119 9 129 8 5 11 9 7 9 -4 0 8 15 26 33 18 17
36 40 39 50 4 9 10 17 13 17 4 0 5 -3 1 -6z m-1519 -62 c-1 -10 5 -30 14 -45
10 -14 15 -32 12 -40 -3 -8 2 -17 10 -20 16 -6 11 -47 -6 -47 -6 0 -8 -9 -5
-21 6 -24 -1 -49 -14 -49 -12 0 -49 -38 -49 -50 0 -5 -13 -19 -30 -31 -16 -12
-27 -27 -23 -33 3 -6 -4 -2 -16 10 -31 29 -44 91 -23 99 14 5 14 8 3 15 -12 7
-12 11 1 24 9 8 19 12 23 8 4 -4 6 -2 4 3 -1 6 1 18 6 28 7 17 8 17 22 0 13
-16 13 -16 3 5 -8 17 -7 30 7 60 9 20 22 41 27 45 8 6 7 10 -1 13 -8 4 -7 11
5 25 21 24 34 25 30 1z m-4798 -252 c0 -23 -19 -60 -39 -76 -8 -6 -11 -16 -7
-22 3 -6 2 -13 -4 -17 -6 -4 -8 -10 -5 -14 2 -5 -10 -24 -28 -42 -53 -55 -125
-119 -131 -119 -8 0 -62 -38 -90 -62 -33 -30 -56 -23 -56 15 0 28 6 36 45 57
25 14 45 28 45 32 0 5 7 8 15 8 8 0 37 20 65 45 28 25 57 45 65 45 8 0 15 6
15 14 0 7 7 19 15 26 9 7 13 15 10 18 -9 10 27 41 41 35 9 -3 14 1 12 13 -3
41 3 64 17 64 8 0 15 -9 15 -20z m2616 -294 c9 -10 12 -25 7 -47 -4 -21 -3
-30 4 -26 6 4 13 -2 16 -13 3 -11 1 -18 -4 -14 -5 3 -8 -26 -8 -67 1 -68 -10
-97 -33 -83 -4 3 -8 1 -8 -4 0 -5 -8 -12 -17 -14 -15 -4 -18 3 -20 35 -2 23
-7 43 -12 46 -12 8 -2 61 11 61 6 0 4 7 -3 16 -12 15 -11 16 11 10 24 -6 24
-6 -2 9 -30 17 -35 30 -16 41 7 5 8 3 3 -5 -5 -9 -2 -12 11 -9 12 2 21 17 27
41 10 41 12 43 33 23z m-5139 -236 c-1 -11 -5 -20 -9 -20 -5 0 -4 -9 2 -20 6
-11 15 -18 19 -15 5 2 15 -3 22 -13 13 -15 12 -16 -3 -3 -15 11 -18 11 -18 0
0 -7 -7 -3 -16 9 -18 26 -35 21 -27 -8 7 -25 -14 -27 -21 -2 -4 14 -5 14 -4
-3 1 -47 -2 -56 -19 -53 -13 2 -19 -4 -20 -22 -2 -25 -2 -25 5 -2 l7 24 19
-21 c11 -12 25 -21 33 -21 8 0 11 -5 8 -11 -5 -7 -15 -3 -30 11 l-23 22 -12
-36 c-6 -20 -8 -41 -4 -47 4 -8 3 -9 -4 -5 -11 6 -22 -33 -26 -88 0 -13 -5
-22 -9 -19 -5 3 -6 11 -3 18 3 8 -3 19 -11 27 -15 11 -16 11 -10 -4 3 -10 2
-18 -2 -18 -11 0 -32 -56 -24 -64 4 -3 -4 -15 -17 -26 -13 -11 -19 -20 -14
-20 6 0 16 6 23 13 11 10 13 9 7 -6 -3 -10 -6 -21 -6 -23 0 -2 -7 -4 -15 -4
-8 0 -15 -8 -15 -17 0 -15 2 -16 10 -3 11 17 13 10 4 -14 -3 -9 -9 -14 -13
-11 -4 2 -5 -9 -3 -26 2 -16 0 -29 -4 -28 -21 4 -28 -2 -14 -11 9 -6 10 -10 3
-10 -6 0 -17 -16 -23 -35 -9 -28 -9 -39 1 -53 11 -14 11 -15 -1 -5 -20 19 -38
-29 -34 -91 4 -52 -10 -91 -28 -80 -7 5 -9 1 -5 -9 7 -20 -2 -49 -13 -42 -9 5
-6 62 3 72 4 3 4 18 1 32 -5 21 -3 23 6 11 9 -12 11 -10 7 13 -5 30 23 169 40
202 6 11 8 26 6 33 -3 6 0 12 6 12 5 0 8 9 6 21 -6 29 6 80 16 73 5 -3 6 2 3
11 -8 20 67 236 79 228 6 -3 7 -1 3 5 -4 7 -4 18 1 25 4 6 8 19 10 27 2 15 16
46 38 90 8 15 29 30 52 37 54 16 62 16 60 -7z m-331 -108 c-1 -7 -8 -18 -15
-25 -11 -10 -12 -7 -6 13 l7 25 -20 -20 c-11 -11 -20 -22 -20 -25 1 -36 -3
-43 -14 -32 -9 9 -15 5 -25 -20 -7 -17 -11 -33 -8 -36 3 -3 5 0 5 6 0 7 5 12
10 12 7 0 7 -6 1 -19 -6 -10 -7 -21 -4 -25 4 -3 -8 -3 -25 0 -27 5 -31 4 -26
-9 3 -9 12 -13 19 -11 7 3 16 0 21 -7 4 -7 3 -10 -3 -6 -6 4 -18 -9 -27 -28
-9 -19 -19 -35 -22 -35 -3 0 -3 4 1 9 3 5 0 13 -6 17 -8 4 -9 3 -5 -4 4 -6 -4
-21 -18 -33 -14 -12 -23 -26 -20 -30 2 -5 -1 -18 -7 -31 -33 -64 -33 -64 -16
-49 14 11 18 11 23 -3 6 -15 7 -15 19 0 9 14 14 14 20 4 6 -9 4 -11 -5 -5 -9
6 -12 4 -8 -6 4 -10 -2 -15 -19 -17 -16 -1 -22 2 -17 10 4 7 3 8 -5 4 -9 -6
-9 -11 0 -22 10 -12 9 -13 -4 -8 -21 8 -41 -28 -24 -45 9 -10 8 -11 -7 -5 -15
6 -17 4 -10 -7 12 -20 14 -40 3 -33 -5 3 -7 10 -4 15 4 5 1 9 -5 9 -6 0 -15
-11 -20 -25 -11 -28 -15 -30 -26 -13 -4 7 -3 8 4 4 7 -4 12 -5 12 -2 0 17 -22
13 -29 -6 -9 -22 -10 -22 -12 7 l-1 30 -8 -30 c-7 -28 -8 -27 -9 13 0 24 11
74 25 115 15 39 34 93 44 119 9 26 20 45 23 42 3 -3 3 3 1 13 -3 11 2 25 10
32 9 8 16 20 16 27 0 17 19 51 43 76 9 10 17 25 17 33 0 8 5 15 11 15 5 0 8 4
4 10 -7 11 71 34 92 26 8 -3 11 -1 8 4 -3 6 1 10 10 10 9 0 14 -5 10 -12 -3
-7 0 -6 6 3 9 13 15 14 24 5 7 -6 12 -17 11 -24z m-690 -174 c-8 -18 -19 -34
-25 -36 -6 -2 -11 -8 -11 -13 0 -6 4 -7 10 -4 6 3 7 -1 4 -10 -5 -11 -2 -14
12 -9 18 5 18 5 1 -6 -9 -6 -15 -15 -12 -20 3 -4 -5 -7 -18 -6 -15 2 -24 -2
-24 -11 0 -9 7 -13 18 -10 20 5 34 -19 17 -29 -7 -4 -8 -3 -4 4 4 7 1 12 -8
12 -18 0 -19 -2 -10 -24 3 -9 9 -14 13 -12 3 3 6 -14 6 -36 0 -22 3 -42 7 -44
5 -3 8 -10 8 -16 0 -6 -7 -5 -17 3 -15 13 -15 12 -4 -8 13 -26 4 -84 -10 -61
-7 10 -9 10 -9 0 0 -7 -4 -11 -8 -8 -13 8 -36 -40 -27 -55 5 -8 4 -10 -3 -5
-7 4 -13 17 -13 29 -1 17 -3 15 -8 -8 l-7 -30 -8 35 c-6 22 -5 35 2 38 6 2 8
10 5 18 -7 20 -36 -34 -30 -57 3 -12 -1 -15 -19 -11 -19 3 -22 1 -17 -19 l6
-22 -21 21 c-29 29 -24 88 24 264 l37 136 55 16 c31 8 58 13 61 9 3 -3 0 -8
-7 -10 -17 -6 -36 -43 -22 -43 5 0 10 7 10 16 0 8 4 13 9 10 4 -3 13 6 19 19
17 37 33 30 18 -7z m2404 -3 c0 -16 -18 -43 -50 -77 -27 -29 -50 -55 -50 -59
0 -3 -11 -18 -24 -32 -13 -14 -27 -40 -31 -57 -4 -16 -11 -30 -16 -30 -18 0
-43 -82 -40 -132 1 -19 29 -18 41 1 5 9 10 10 14 3 3 -6 1 -14 -4 -17 -8 -5
-5 -13 6 -26 26 -29 5 -45 -33 -26 -37 20 -57 9 -45 -24 5 -13 9 -36 8 -51 -1
-16 2 -28 6 -28 4 0 8 -9 8 -21 0 -22 29 -81 43 -87 4 -2 7 -9 7 -16 0 -7 19
-34 42 -60 39 -45 80 -71 104 -67 7 1 14 -9 17 -21 6 -23 36 -40 142 -81 92
-35 205 -56 313 -58 88 -2 96 -13 10 -16 -137 -4 -335 39 -442 95 -81 42 -226
161 -226 185 0 6 -7 18 -15 27 -30 33 -58 133 -60 211 -1 42 -5 81 -9 88 -4 6
0 21 8 33 9 12 16 31 16 41 0 21 79 157 92 157 4 0 8 5 8 10 0 13 140 160 152
160 4 0 8 -11 8 -25z m11528 -108 c37 -138 43 -183 25 -180 -7 2 -10 -4 -7
-12 4 -8 2 -15 -3 -15 -12 0 -147 142 -148 155 -1 6 -6 9 -13 8 -7 -2 -12 4
-12 12 0 8 -4 15 -10 15 -5 0 -10 4 -10 10 0 5 6 7 14 4 8 -3 17 0 21 6 3 6 3
10 -2 9 -22 -4 -43 2 -43 12 0 8 12 10 33 6 19 -3 40 -1 48 4 11 7 11 9 -3 9
-11 0 -18 8 -18 19 0 20 -14 22 -40 7 -13 -8 -13 -7 0 7 12 12 84 38 130 46 3
1 20 -54 38 -122z m-14181 30 c1 -23 2 -47 3 -52 1 -6 2 -29 1 -52 -1 -35 -4
-43 -20 -43 -15 0 -18 -5 -13 -22 3 -13 9 -25 13 -28 4 -3 10 -32 13 -65 3
-39 3 -49 -3 -30 -4 17 -17 48 -28 70 -17 34 -31 73 -71 195 -11 32 -10 39 6
44 10 2 28 7 41 11 23 7 23 7 20 -66 -4 -67 -2 -74 16 -77 l20 -4 -20 15 c-17
13 -18 18 -6 29 12 11 13 10 8 -4 -4 -10 -2 -18 3 -18 13 0 13 27 0 35 -5 3
-10 17 -10 31 0 13 5 24 10 24 6 0 10 5 10 11 0 5 -4 8 -9 4 -6 -3 -9 4 -8 15
3 38 23 20 24 -23z m1452 -53 c23 -86 26 -129 12 -138 -5 -4 -17 -31 -26 -61
-18 -55 -50 -101 -38 -53 4 13 9 25 12 28 10 9 43 104 47 135 l4 30 -11 -30
c-7 -16 -18 -39 -25 -49 -15 -22 -48 -32 -41 -13 3 7 10 11 16 9 7 -1 10 2 7
7 -8 12 4 42 13 37 4 -3 12 13 18 35 5 21 9 39 7 39 -1 0 -19 -30 -40 -67 -21
-38 -45 -74 -55 -81 -10 -7 -16 -21 -14 -32 2 -11 0 -18 -5 -15 -6 3 -16 0
-24 -7 -12 -11 -12 -16 2 -32 10 -11 12 -16 5 -13 -6 4 -16 0 -22 -10 -6 -10
-11 -13 -11 -8 0 6 5 16 12 23 7 7 8 12 2 12 -6 0 -16 -11 -22 -25 -15 -32
-15 -45 -1 -25 9 13 10 13 6 0 -2 -8 -10 -14 -17 -12 -8 2 -10 -3 -6 -13 3 -9
2 -14 -3 -10 -5 3 -11 2 -14 -2 -5 -9 -1 4 8 32 5 16 4 15 -7 -3 -8 -12 -17
-19 -22 -15 -4 4 -2 -5 4 -21 6 -16 8 -31 5 -34 -3 -3 -5 0 -5 7 0 7 -4 9 -10
6 -6 -3 -7 1 -4 12 5 17 5 17 -6 0 -6 -9 -8 -23 -5 -30 4 -6 -2 -2 -13 11 -14
15 -22 18 -25 10 -3 -7 -6 3 -6 23 -1 19 11 59 26 90 35 71 168 251 178 241 5
-4 5 -1 1 6 -6 11 25 65 35 59 2 -1 3 0 2 2 -6 9 20 42 27 35 4 -5 17 -45 29
-90z m5020 63 c10 3 22 0 25 -6 4 -5 13 -8 21 -4 8 3 15 2 15 -1 0 -4 9 -41
21 -84 26 -98 17 -135 -53 -208 -72 -76 -194 -115 -212 -68 -3 9 0 11 11 7 11
-4 14 -2 9 5 -4 7 -2 12 3 12 6 0 11 -4 11 -10 0 -16 30 -12 36 5 4 8 12 15
19 15 7 0 15 7 19 15 3 8 12 15 21 15 8 0 15 4 15 9 0 16 -21 24 -32 13 -6 -6
-21 -7 -40 -2 -16 5 -36 6 -45 3 -13 -5 -14 0 -8 28 4 19 11 36 16 37 5 2 9
12 9 22 0 10 5 22 11 26 9 5 10 -1 5 -22 -5 -21 -4 -25 4 -14 5 8 10 11 10 7
0 -5 5 -5 10 -2 6 4 4 12 -5 21 -26 26 -19 45 13 38 24 -7 26 -6 13 10 -12 14
-12 18 4 30 13 9 15 15 7 20 -15 9 -16 53 -2 61 6 4 8 11 5 16 -4 5 -2 9 4 9
5 0 11 -6 14 -12 3 -9 7 -6 13 6 4 11 9 15 11 9 2 -6 12 -9 22 -6z m-6591 -78
c13 -40 34 -97 49 -128 14 -31 29 -69 34 -84 7 -25 6 -27 -13 -21 -15 4 -18 3
-13 -6 4 -7 1 -16 -6 -21 -9 -5 -10 -9 -2 -9 6 0 9 -9 6 -20 -6 -22 -18 -26
-28 -10 -3 6 -17 10 -31 10 -13 0 -24 3 -25 8 -4 40 -12 69 -21 77 -7 7 -9 3
-5 -13 4 -19 2 -22 -14 -17 -12 4 -19 2 -20 -7 -1 -18 -24 57 -55 176 -14 54
-22 101 -18 105 4 3 8 2 11 -4 2 -5 10 -21 18 -35 7 -14 26 -49 42 -79 18 -35
29 -49 31 -37 2 9 -15 46 -37 82 -38 60 -44 84 -22 84 5 0 9 -10 9 -23 0 -12
9 -38 20 -56 l20 -34 -4 44 c-3 24 -7 52 -9 61 -3 16 11 24 46 27 10 1 22 -21
37 -70z m-484 -66 c73 -257 100 -340 110 -348 19 -14 42 -64 50 -105 4 -25 3
-31 -4 -20 -21 31 4 -77 57 -245 29 -93 68 -223 86 -288 31 -113 33 -117 56
-112 60 15 124 17 132 3 7 -10 9 -10 9 0 0 7 13 12 33 12 28 -1 29 -2 13 -11
-17 -11 -17 -12 5 -23 34 -16 36 -42 4 -42 -14 0 -25 5 -25 11 0 6 -9 11 -20
12 -14 1 -18 -2 -13 -10 4 -7 6 -21 4 -31 -2 -16 2 -18 26 -13 20 4 30 2 30
-7 0 -8 -9 -11 -25 -8 -19 4 -24 1 -20 -9 4 -11 -5 -14 -38 -15 -24 0 -41 3
-38 8 3 4 0 8 -5 8 -6 0 -11 -5 -11 -11 0 -5 -4 -7 -10 -4 -5 3 -10 -1 -10
-10 0 -9 -5 -13 -11 -10 -5 4 -20 -1 -31 -12 -16 -13 -20 -14 -16 -3 2 8 14
20 25 25 35 18 53 37 53 55 0 13 6 16 25 12 14 -2 25 -9 25 -16 0 -6 5 -3 11
7 6 10 8 21 5 24 -3 4 -6 2 -6 -4 0 -8 -8 -8 -25 0 -31 15 -32 24 -2 23 13 -1
22 5 22 14 0 9 -10 15 -22 16 -13 1 -23 -3 -23 -7 0 -5 -5 -9 -11 -9 -5 0 -7
5 -4 10 8 14 -18 13 -50 -2 -15 -7 -25 -19 -25 -33 0 -12 -12 -32 -26 -46
l-26 -24 7 30 c5 23 4 26 -4 15 -9 -13 -11 -12 -11 4 0 12 -5 16 -15 12 -8 -3
-15 -1 -15 3 0 5 4 11 9 13 6 2 -23 113 -64 248 -41 135 -75 260 -75 278 0 18
-3 31 -8 28 -9 -5 -35 77 -114 359 -33 121 -63 226 -66 234 -3 9 -1 12 6 7 7
-4 12 -3 12 3 0 8 15 15 42 20 4 0 9 -7 12 -16z m2461 -5 c25 -7 45 -16 45
-21 0 -4 4 -5 10 -2 5 3 30 -3 54 -15 25 -11 49 -20 53 -20 5 0 15 -9 23 -19
7 -11 17 -18 22 -15 4 3 8 0 8 -6 0 -6 8 -14 18 -17 9 -4 23 -13 31 -21 12
-12 12 -15 0 -24 -10 -7 -8 -8 9 -3 16 5 22 2 22 -9 0 -9 5 -16 10 -16 6 0 10
-4 10 -10 0 -15 -27 -12 -44 6 -9 8 -16 12 -16 7 1 -19 17 -31 44 -35 49 -5
67 -54 72 -203 4 -98 2 -125 -7 -119 -9 5 -10 2 -5 -11 3 -10 -2 -35 -12 -59
-10 -23 -24 -59 -31 -81 -21 -65 -135 -230 -152 -220 -4 3 -11 0 -15 -6 -4 -8
-3 -9 4 -5 7 4 12 3 12 -3 0 -18 -21 -23 -38 -9 -15 12 -16 11 -4 -4 12 -15 6
-24 -44 -77 -52 -55 -87 -80 -68 -49 4 7 3 8 -5 4 -6 -4 -9 -11 -6 -16 3 -5 1
-11 -5 -15 -11 -7 -14 0 -25 49 -5 22 -3 27 8 23 11 -4 14 1 13 19 -1 29 -5
30 -22 7 -11 -15 -13 -15 -14 -3 0 9 8 23 18 32 9 9 28 28 41 42 13 15 28 25
35 24 21 -4 51 12 69 38 30 40 12 40 -24 0 -17 -20 -34 -34 -37 -32 -9 9 64
82 78 78 7 -3 10 0 6 6 -7 11 33 92 60 123 8 8 14 21 14 27 0 7 7 9 18 5 15
-6 15 -5 2 11 -12 16 -12 19 3 27 9 6 22 20 29 32 10 20 10 21 -5 8 -16 -13
-25 -2 -10 13 4 4 15 28 25 54 31 81 21 189 -24 282 -13 26 -40 53 -82 83 -14
10 -26 24 -26 32 0 8 -4 15 -10 15 -5 0 -19 11 -32 25 -13 13 -33 26 -44 28
-12 1 -29 10 -38 19 -9 9 -38 20 -64 23 -63 9 -74 13 -35 14 18 1 53 -4 78
-11z m12177 -24 c13 -11 32 -33 43 -48 11 -15 32 -44 48 -63 30 -40 33 -53 15
-72 -11 -11 -9 -13 9 -8 22 5 44 -13 76 -65 14 -22 14 -27 2 -32 -20 -7 -19
-24 3 -29 14 -4 13 -5 -4 -6 -11 0 -21 -8 -21 -16 0 -18 9 -19 27 -2 8 6 6 1
-3 -13 -30 -43 -47 -88 -46 -122 0 -27 2 -30 9 -13 4 11 14 34 21 50 7 17 12
33 11 38 -1 4 3 7 9 7 6 0 8 -8 4 -19 -3 -11 0 -29 7 -40 9 -15 10 -23 1 -32
-8 -8 -10 -6 -9 8 0 10 -3 19 -9 21 -5 1 -10 -6 -10 -15 0 -10 -3 -20 -7 -23
-10 -8 3 -51 13 -44 12 7 11 -13 0 -35 -6 -10 -6 -23 0 -32 7 -12 9 -11 9 3 0
12 5 15 16 11 13 -5 15 -2 10 15 -4 12 -2 23 5 28 9 5 10 2 6 -9 -4 -11 -1
-17 9 -17 24 0 13 -40 -16 -59 -13 -9 -21 -11 -17 -5 9 15 -40 4 -97 -20 l-40
-16 -33 32 c-18 17 -33 29 -33 25 0 -4 -18 11 -41 33 -22 21 -38 44 -34 50 3
5 1 10 -5 10 -7 0 -10 7 -7 15 4 8 2 17 -3 20 -16 10 -12 41 7 56 15 13 16 12
11 -8 -4 -13 -2 -23 3 -23 5 0 13 10 18 23 8 20 9 19 16 -13 6 -27 9 -31 14
-17 4 10 11 18 15 17 16 -3 24 23 15 49 l-9 26 23 -28 c22 -26 25 -27 38 -11
8 10 9 15 3 11 -7 -4 -14 1 -17 13 -3 12 1 20 12 23 10 3 8 5 -7 6 -12 0 -25
8 -28 16 -4 8 -12 15 -19 15 -8 0 -17 4 -20 10 -4 6 1 7 11 3 13 -5 15 -3 10
8 -4 8 2 3 13 -10 12 -13 24 -22 26 -19 3 3 -1 11 -10 18 -8 7 -15 19 -15 26
0 21 41 64 61 64 9 0 20 7 23 16 3 8 2 12 -4 9 -6 -3 -13 1 -16 9 -3 9 -11 13
-17 9 -6 -3 -7 -1 -3 6 4 6 12 9 17 6 18 -12 21 26 4 45 -10 11 -20 18 -23 15
-3 -3 3 -15 14 -27 19 -21 19 -21 -1 -14 -11 4 -24 9 -30 10 -5 1 -16 5 -22 9
-9 6 -11 3 -7 -7 3 -9 14 -16 23 -17 10 0 8 -3 -7 -10 -13 -5 -28 -7 -33 -3
-5 3 -9 -2 -9 -10 0 -9 9 -16 20 -16 43 0 16 -37 -30 -41 -19 -2 -37 -7 -40
-11 -3 -4 -11 -3 -19 1 -10 7 -11 13 -2 30 8 14 8 21 1 21 -7 0 -7 6 1 21 9
17 7 24 -12 42 -21 20 -21 21 -3 28 18 6 18 7 2 14 -22 9 -23 22 -3 22 8 0 15
-4 15 -9 0 -4 5 -8 11 -8 5 0 8 4 5 9 -3 4 6 13 20 20 20 9 24 9 18 -1 -5 -9
-2 -9 9 1 16 13 15 15 -8 27 -30 16 -59 43 -53 50 3 2 11 -2 18 -11 16 -20 41
-20 34 0 -4 8 -12 15 -19 15 -8 0 -17 4 -20 10 -10 16 31 -3 57 -26z m694 10
c-3 -7 -1 -16 5 -19 5 -4 6 -11 3 -17 -4 -6 1 -17 11 -25 17 -12 17 -13 2 -13
-9 0 -17 -7 -17 -15 0 -8 5 -15 10 -15 7 0 7 -7 0 -20 -6 -11 -8 -25 -5 -30 3
-6 1 -10 -5 -10 -6 0 -8 -5 -5 -10 3 -6 1 -25 -6 -43 -10 -28 -9 -41 5 -78 9
-24 15 -63 14 -86 -3 -38 -5 -42 -23 -36 -18 5 -18 4 -6 -11 8 -10 21 -14 32
-11 11 4 19 2 19 -4 0 -6 -5 -11 -11 -11 -6 0 -9 -9 -6 -20 3 -11 1 -18 -4
-14 -5 3 -9 0 -9 -5 0 -6 -5 -11 -11 -11 -6 0 -9 9 -6 19 4 15 1 18 -12 13
-13 -5 -14 -3 -4 10 10 12 9 23 -8 58 -13 27 -19 53 -15 71 3 15 1 29 -5 31
-18 6 -17 57 1 78 9 11 20 17 24 13 3 -3 6 1 6 10 0 9 -5 19 -11 22 -7 5 -8
23 -4 49 4 22 8 61 9 86 1 25 5 51 9 58 11 16 30 4 23 -14z m-10424 -22 c-3
-17 -1 -23 7 -18 6 4 11 14 11 22 0 8 5 14 10 14 6 0 10 -28 11 -62 0 -45 3
-57 9 -43 l9 20 0 -20 c0 -11 -3 -26 -8 -34 -7 -11 -12 -6 -19 20 l-10 34 1
-41 c1 -23 6 -40 11 -37 9 6 1 -22 -18 -69 -7 -16 -16 -25 -21 -21 -4 5 -5 3
-2 -3 9 -16 -11 -53 -67 -125 -28 -35 -51 -57 -58 -53 -7 4 -8 3 -4 -4 16 -26
-177 -176 -322 -251 -46 -23 -125 -56 -175 -73 -89 -29 -383 -92 -396 -84 -3
2 -33 0 -66 -5 -125 -18 -400 34 -533 99 -72 36 -137 75 -156 93 -21 19 -29
59 -13 59 5 0 7 -9 4 -21 -6 -22 24 -39 69 -39 13 0 24 -4 24 -9 0 -4 -12 -6
-27 -4 l-28 5 29 -16 c35 -20 36 -20 36 -2 0 12 10 9 41 -9 23 -13 49 -21 58
-18 9 4 13 3 10 -1 -10 -11 -49 -16 -49 -5 0 5 -5 9 -11 9 -22 0 -2 -25 21
-26 13 -1 26 -6 28 -12 4 -14 42 -2 42 14 0 7 4 15 9 18 5 4 7 -4 4 -16 -5
-23 -5 -23 11 -3 17 20 17 20 12 -3 -4 -22 -3 -22 12 -9 14 12 27 13 67 6 71
-13 204 -30 245 -32 19 -1 38 -6 42 -12 5 -7 8 -7 8 0 0 6 21 10 48 9 26 0 58
3 72 7 14 4 75 18 135 30 109 22 225 57 194 58 -9 1 -70 -12 -135 -28 -112
-27 -265 -49 -252 -36 3 3 59 15 124 26 109 18 265 61 289 79 6 4 28 13 50 20
49 15 195 92 195 103 0 12 -52 -1 -62 -15 -5 -8 -8 -1 -8 20 0 17 5 32 11 32
6 0 8 -7 5 -16 -5 -12 -2 -15 11 -9 10 4 25 7 33 6 43 -4 55 1 102 41 76 63
98 84 126 120 15 21 22 25 18 13 -6 -20 -6 -20 9 -1 8 11 15 26 15 34 0 7 5
10 12 6 7 -4 8 -3 4 5 -10 16 19 42 41 35 12 -4 14 -3 6 3 -9 6 -10 18 -4 38
5 17 10 26 10 21 2 -19 41 33 41 54 0 11 9 31 21 43 18 20 19 22 3 26 -13 2
-14 5 -4 11 7 4 13 19 13 32 0 14 5 25 12 25 7 0 10 -10 7 -25z m7508 -102 c0
-6 4 -9 8 -6 5 3 7 -15 5 -39 -5 -49 -1 -52 40 -31 20 11 27 12 28 3 0 -9 2
-9 6 1 2 6 14 12 25 12 18 0 18 -3 -9 -34 -15 -19 -38 -37 -50 -40 -27 -8 -29
-19 -6 -37 15 -12 16 -12 10 6 -7 19 -6 19 7 2 8 -11 12 -25 9 -33 -3 -8 0
-14 7 -14 6 0 8 -4 5 -10 -3 -5 -2 -10 2 -10 5 0 9 -10 10 -22 l2 -23 -20 24
-19 23 -9 -23 c-7 -17 -10 -19 -10 -7 -1 9 5 23 13 30 11 12 10 18 -6 38 -13
16 -22 20 -26 12 -5 -6 -13 -8 -21 -2 -10 5 -20 1 -33 -13 l-19 -22 11 22 c9
19 20 84 23 133 0 8 -2 35 -6 58 -7 39 -6 42 8 29 8 -9 15 -21 15 -27z
m-12712 8 c6 -6 12 -18 12 -27 0 -9 5 -22 12 -29 9 -9 9 -15 0 -24 -8 -8 -8
-17 -1 -30 6 -11 8 -31 5 -44 l-7 -25 -23 28 c-20 24 -26 25 -40 14 -14 -12
-16 -11 -16 4 0 13 -6 16 -25 11 -23 -6 -24 -5 -18 31 3 21 6 51 7 67 1 36 23
46 29 14 4 -20 4 -19 6 5 1 25 4 27 24 21 12 -3 28 -11 35 -16z m13585 -53
c-24 -25 -43 -54 -43 -65 0 -29 8 -25 23 13 9 21 25 36 47 44 30 11 31 11 17
-5 -9 -9 -21 -36 -29 -60 -11 -36 -19 -44 -48 -52 -33 -9 -73 -30 -59 -30 4 0
26 7 50 15 40 15 45 14 56 -2 12 -15 13 -15 13 5 0 15 6 22 20 22 20 0 19 -19
-2 -47 -5 -7 -5 -14 2 -18 14 -9 21 -2 23 23 0 11 5 18 9 16 4 -3 8 -1 8 3 0
5 7 18 15 29 10 13 9 3 -5 -35 -11 -30 -18 -56 -16 -58 4 -5 36 62 36 76 0 6
5 11 11 11 5 0 7 -6 3 -12 -4 -7 1 -6 12 3 18 16 54 22 54 10 0 -3 -16 -16
-36 -29 -42 -27 -40 -39 2 -17 16 8 36 15 44 14 9 0 6 -4 -7 -9 -23 -9 -51
-50 -34 -50 5 0 12 8 14 18 4 13 5 14 6 1 2 -29 -24 -47 -106 -74 -46 -14 -86
-31 -89 -37 -8 -12 50 -70 60 -61 3 4 6 0 7 -8 0 -8 6 -60 12 -115 l12 -102
60 19 c33 10 66 17 73 14 9 -3 12 4 8 28 -3 17 -8 52 -11 77 -13 88 -16 105
-20 127 -4 15 1 26 15 33 11 6 20 7 20 1 0 -5 -8 -12 -17 -15 -13 -5 -14 -9
-5 -15 6 -4 17 -52 24 -109 7 -58 16 -102 22 -102 6 0 38 9 70 20 70 24 76 24
76 6 0 -8 -12 -17 -26 -20 -15 -4 -24 -9 -22 -12 3 -2 19 1 36 7 21 7 32 18
32 30 0 10 -5 19 -10 19 -6 0 -5 6 2 14 11 11 16 11 34 -1 20 -13 22 -12 28
12 4 14 11 23 16 20 6 -4 4 -15 -5 -28 -12 -19 -12 -28 2 -70 18 -55 7 -78
-36 -75 -30 2 -102 -9 -146 -22 -16 -5 -41 -12 -55 -15 -14 -2 -38 -8 -54 -11
-20 -5 -27 -4 -22 5 9 14 18 16 -94 -19 -52 -16 -85 -29 -73 -29 12 -1 30 -4
40 -7 15 -5 16 -4 3 6 -12 9 -9 10 15 6 23 -5 27 -4 15 5 -12 8 -7 9 20 5 26
-5 31 -3 20 5 -11 8 -6 9 20 5 26 -5 30 -4 15 3 -13 7 -15 10 -5 10 8 0 21 -3
28 -7 9 -6 6 -12 -12 -20 -38 -17 -146 -102 -146 -115 -1 -31 -22 35 -75 233
-150 562 -145 540 -124 540 10 0 40 9 67 19 49 20 65 18 74 -9 3 -10 6 -8 10
8 4 12 2 20 -3 16 -5 -3 -9 -1 -9 4 0 7 39 22 81 31 3 0 -14 -19 -38 -44z
m-13907 -292 c77 -155 145 -288 151 -295 16 -22 41 -100 49 -153 3 -27 12 -60
20 -72 15 -24 19 -53 6 -53 -4 0 -45 74 -92 164 -46 91 -88 162 -93 159 -6 -3
-7 -1 -3 5 4 7 -13 53 -38 104 -25 51 -45 97 -45 102 1 5 -3 12 -8 15 -4 3
-13 15 -19 26 -6 11 -16 29 -22 40 -6 11 -25 49 -41 85 -17 36 -41 83 -55 105
-22 36 -23 41 -8 47 47 19 53 11 198 -279z m15774 124 c0 -1 -4 -16 -9 -34 -8
-28 -7 -32 15 -37 13 -4 24 -11 24 -17 0 -6 7 -6 20 1 11 6 20 7 19 3 -5 -27
4 -45 27 -53 17 -7 23 -14 17 -22 -4 -7 -6 -21 -5 -30 3 -19 -6 -23 -24 -10
-13 8 -29 51 -26 69 2 7 -6 9 -18 6 -18 -5 -20 -11 -14 -57 4 -37 3 -47 -5
-36 -7 10 -11 11 -11 3 0 -7 -3 -13 -8 -13 -4 0 -6 18 -4 40 4 37 2 40 -19 39
-14 0 -18 -3 -10 -6 10 -4 11 -7 1 -13 -8 -5 -22 2 -36 17 -26 28 -26 29 -14
58 8 18 10 17 21 -12 8 -18 17 -33 21 -33 4 0 5 6 2 14 -3 8 -1 17 5 21 6 3
11 1 11 -4 0 -6 5 -11 10 -11 16 0 12 37 -4 43 -9 4 -13 15 -11 30 3 16 0 24
-10 24 -8 0 -14 -7 -13 -15 2 -8 -2 -17 -8 -19 -19 -7 -8 40 12 48 19 8 44 11
44 6z m-7902 -159 c5 -24 82 -315 171 -647 89 -332 159 -611 157 -618 -3 -8
-2 -12 3 -9 11 7 24 -60 15 -76 -4 -6 -3 -8 4 -5 6 5 13 -9 17 -34 8 -44 1
-59 -17 -41 -18 18 -28 14 -28 -10 0 -18 2 -20 10 -8 5 8 12 11 17 7 4 -5 3
-11 -3 -15 -6 -4 -14 -14 -17 -22 -4 -12 -6 -11 -6 3 -1 20 -17 23 -24 5 -3
-7 -3 2 0 21 4 25 3 32 -6 27 -6 -4 -9 -11 -7 -15 3 -4 0 -13 -6 -21 -8 -12
-9 -12 -4 3 3 11 0 17 -9 17 -8 0 -15 -7 -15 -15 0 -8 -4 -15 -10 -15 -5 0
-10 5 -10 11 0 8 -5 8 -15 -1 -8 -7 -15 -23 -15 -36 0 -15 6 -24 15 -24 8 0
15 5 15 10 0 6 5 10 10 10 21 0 9 -27 -17 -38 -22 -9 -23 -11 -6 -8 32 6 39
-12 9 -20 -31 -7 -41 -31 -16 -39 16 -5 17 -10 7 -35 -8 -21 -14 -27 -22 -19
-7 8 -6 13 3 16 6 3 12 10 12 16 0 5 -3 7 -7 4 -3 -4 -12 -2 -19 4 -11 9 -15
7 -20 -7 -9 -29 -27 -64 -31 -61 -1 2 1 18 6 35 8 26 7 32 -5 32 -8 0 -12 5
-9 10 3 6 15 10 27 10 16 0 19 5 14 23 -3 12 -6 28 -6 35 0 7 -4 10 -10 7 -5
-3 -10 1 -10 10 0 9 5 13 10 10 6 -3 10 0 10 8 0 7 -7 14 -15 14 -8 0 -15 -6
-15 -14 0 -7 -5 -13 -10 -13 -7 0 -7 -7 0 -20 6 -11 15 -18 21 -15 5 4 9 -3 9
-14 0 -12 -7 -21 -15 -21 -8 0 -15 5 -15 10 0 6 -6 10 -14 10 -8 0 -17 6 -19
13 -3 6 -6 -2 -6 -19 -1 -44 -24 -49 -51 -11 -13 18 -29 36 -37 40 -7 4 -13
15 -13 23 0 8 -12 19 -26 24 -33 13 -55 12 -29 -1 11 -6 35 -32 54 -60 18 -27
40 -49 47 -49 16 0 19 -16 4 -25 -11 -7 -2 -35 12 -35 5 0 6 9 3 20 -3 11 -2
20 3 20 5 0 12 -10 14 -23 4 -19 0 -23 -21 -25 -14 -1 -27 -6 -31 -11 -6 -11
-90 -9 -90 2 0 4 6 7 14 7 12 0 12 7 4 36 -10 38 -4 60 7 25 4 -12 12 -18 21
-14 18 7 19 33 0 33 -7 0 -21 10 -29 23 -13 18 -18 19 -26 8 -5 -8 -8 -19 -7
-25 2 -6 1 -8 -1 -3 -3 4 -8 5 -12 3 -4 -3 -8 1 -9 9 -1 8 -3 22 -4 30 -1 13
-14 17 -45 14 -5 0 -7 -7 -5 -15 2 -8 -1 -14 -7 -14 -5 0 -12 18 -16 39 -5 33
-11 41 -36 46 -15 4 -33 4 -38 1 -11 -7 -25 29 -17 42 2 4 0 14 -5 22 -9 13
-10 13 -8 0 1 -8 0 -28 -1 -45 -2 -26 -5 -21 -21 30 -11 33 -20 70 -21 83 0
12 -4 22 -9 22 -5 0 -9 5 -9 11 0 5 5 7 10 4 12 -8 13 -3 1 28 -6 14 -6 29 0
38 7 11 9 11 9 -3 0 -10 4 -18 9 -18 4 0 6 11 3 25 -2 14 -8 23 -12 20 -4 -3
-13 9 -20 25 -7 17 -16 30 -21 30 -12 0 -11 -17 1 -25 6 -3 10 -12 9 -18 0 -9
-2 -9 -6 1 -2 6 -9 12 -15 12 -6 0 -6 -6 2 -15 7 -8 16 -12 21 -9 5 3 9 0 9
-5 0 -6 -7 -11 -15 -11 -8 0 -15 -4 -15 -9 0 -5 7 -16 15 -25 8 -8 15 -18 15
-23 0 -4 -14 8 -30 26 -26 28 -36 33 -69 29 l-38 -3 10 37 c9 37 8 40 -31 83
-7 8 -12 25 -10 37 2 13 -7 33 -19 47 -13 13 -23 31 -23 40 0 9 -16 52 -36 96
-56 125 -75 177 -79 212 -4 36 -12 53 -26 53 -5 0 -2 -11 7 -25 9 -14 14 -28
11 -31 -7 -8 -42 58 -39 74 2 6 -2 12 -8 12 -5 0 -10 -4 -10 -9 0 -10 -39 -3
-57 11 -7 5 -16 7 -21 4 -5 -3 -21 3 -35 14 -14 11 -29 20 -34 20 -4 0 -1 -5
7 -10 10 -7 1 -8 -30 -4 -25 4 -45 7 -46 8 -5 7 20 86 27 86 6 0 7 -4 4 -10
-3 -5 0 -10 7 -10 10 0 9 -3 -2 -11 -13 -9 -13 -10 0 -6 10 2 14 13 12 30 -2
15 1 27 7 27 6 0 11 -8 11 -19 0 -20 48 -77 57 -68 13 13 -9 78 -28 86 -20 7
-20 7 4 18 22 10 26 9 36 -13 6 -13 17 -24 26 -24 8 0 15 -4 15 -10 0 -5 -7
-7 -15 -4 -18 7 -19 -3 -2 -39 13 -28 27 -36 27 -14 0 8 3 7 9 -3 6 -8 7 -18
5 -22 -3 -4 5 -8 16 -8 13 0 24 -8 27 -20 3 -11 9 -20 14 -20 11 0 16 -25 -41
204 -28 109 -50 209 -50 221 0 13 -5 25 -11 27 -7 2 9 9 35 15 25 5 46 6 46 2
0 -5 5 -9 10 -9 6 0 9 5 8 11 -2 7 119 44 307 95 171 46 324 88 340 93 49 15
53 13 63 -31z m3747 -50 c8 -10 11 -18 5 -18 -5 0 -6 -8 -3 -17 4 -11 8 -13
11 -5 3 10 7 10 17 2 10 -9 19 -6 35 10 12 12 26 18 33 13 7 -4 5 2 -3 12 -13
16 -13 18 0 13 8 -3 21 2 28 11 12 14 13 14 7 -4 -3 -11 -9 -33 -12 -50 -4
-16 -11 -33 -16 -36 -15 -10 0 -39 19 -39 9 0 22 -6 28 -14 6 -8 26 -17 44
-20 45 -6 47 -10 16 -31 -18 -11 -24 -13 -19 -4 3 8 0 6 -8 -4 -9 -10 -18 -14
-21 -8 -3 5 -14 8 -24 6 -9 -1 -22 2 -29 7 -14 11 -33 3 -33 -14 0 -6 8 -17
18 -24 16 -13 16 -14 0 -8 -15 5 -18 0 -18 -27 0 -31 1 -32 14 -13 14 18 15
18 12 0 -1 -10 -10 -23 -19 -28 -10 -5 -15 -13 -12 -19 3 -5 -1 -6 -9 -3 -9 3
-16 10 -16 15 0 5 -7 9 -15 9 -9 0 -14 8 -13 23 1 12 -6 34 -16 50 -17 25 -30
31 -63 30 -7 -1 -13 4 -13 11 0 6 -15 18 -32 25 l-33 14 28 4 c15 3 27 9 27
14 0 6 13 14 28 20 32 11 38 37 13 56 -13 10 -13 12 -1 13 11 0 11 3 2 12 -15
15 -16 32 -2 23 6 -3 10 -1 10 4 0 6 -5 11 -11 11 -5 0 -8 4 -4 9 3 5 1 12 -5
16 -5 3 -10 12 -10 18 0 7 12 -1 25 -18 13 -16 31 -38 40 -47z m4880 20 c3 -7
6 -24 7 -38 2 -14 6 -27 9 -30 10 -9 28 -92 22 -106 -4 -11 -9 -12 -19 -3 -8
6 -14 9 -14 6 0 -3 -21 3 -47 15 -42 19 -47 19 -58 4 -7 -9 -16 -16 -21 -16
-5 -1 -20 -10 -33 -21 l-24 -20 22 -16 c26 -18 51 -70 51 -108 0 -14 4 -25 8
-25 9 0 32 -59 32 -83 0 -10 11 -39 24 -65 14 -26 27 -63 30 -82 3 -19 14 -63
26 -97 11 -33 20 -89 21 -123 2 -58 0 -63 -35 -96 -37 -35 -43 -48 -26 -59 6
-3 10 -20 10 -36 0 -29 0 -29 -24 -13 -15 9 -22 21 -19 30 3 8 -1 14 -11 14
-10 0 -16 9 -16 24 0 13 -6 26 -14 29 -8 3 -22 24 -32 46 -17 39 -19 40 -41
26 -22 -15 -23 -14 -37 18 -7 19 -17 48 -21 65 -3 18 -11 34 -16 37 -5 4 -9
15 -9 26 0 12 -4 17 -11 13 -6 -3 -9 -22 -7 -40 2 -19 -1 -36 -7 -38 -6 -3 -3
-11 8 -19 18 -15 25 -97 8 -97 -5 0 -12 -8 -15 -17 -3 -10 -17 -23 -31 -30
-31 -14 -31 -9 -1 24 14 15 23 30 20 34 -2 4 -6 25 -8 46 -4 38 -38 108 -53
108 -5 0 -8 25 -8 55 0 49 -2 55 -22 58 -19 3 -23 -1 -23 -22 0 -30 -12 -33
-35 -10 -10 10 -14 26 -11 39 4 15 -2 29 -19 45 -18 17 -25 34 -25 61 0 48 -8
69 -27 69 -11 0 -13 -6 -8 -22 4 -13 10 -41 15 -63 4 -22 13 -56 18 -75 6 -19
12 -64 14 -99 4 -58 2 -64 -18 -73 -19 -9 -27 -6 -54 22 -24 25 -37 31 -56 26
-19 -5 -27 -1 -36 19 -7 16 -17 24 -26 20 -16 -6 -32 13 -70 84 -29 56 -35 76
-34 120 0 20 -8 48 -20 65 -26 38 -70 76 -80 69 -10 -5 -10 -57 -1 -67 12 -12
42 -118 37 -131 -3 -7 2 -27 10 -44 23 -44 20 -61 -10 -61 -19 0 -25 4 -20 15
3 8 0 15 -7 15 -7 0 -19 20 -26 45 -11 37 -17 45 -38 45 -19 0 -24 -4 -21 -22
5 -35 -39 -38 -52 -4 -5 14 -7 32 -4 40 7 18 -68 69 -78 53 -3 -5 -36 -10 -72
-11 -36 -1 -66 -4 -66 -8 0 -5 -5 -8 -11 -8 -18 0 -5 42 16 54 11 6 24 17 28
24 4 6 17 12 28 12 11 0 17 5 14 10 -4 6 6 10 22 10 15 0 37 8 48 17 16 13 17
15 3 10 -10 -4 -18 -2 -18 3 0 5 11 12 25 16 28 7 32 19 10 32 -11 6 6 14 57
27 40 10 80 19 88 20 8 1 28 7 43 14 35 14 58 14 37 1 -9 -6 -10 -10 -3 -10 7
0 16 6 20 14 4 7 105 39 223 71 118 32 294 79 390 105 200 54 199 54 205 38z
m-3654 -25 c10 -11 10 -14 2 -9 -7 4 -13 3 -13 -2 0 -18 28 -21 35 -4 5 14 7
14 16 2 8 -13 10 -13 20 0 9 13 10 13 6 0 -2 -8 -10 -15 -18 -15 -8 0 -18 -6
-22 -13 -6 -8 -13 -9 -25 -3 -12 7 -23 5 -36 -7 -18 -16 -19 -16 -13 1 4 11 3
16 -3 12 -6 -3 -10 -15 -10 -25 0 -15 6 -19 25 -18 14 1 25 5 25 9 0 4 11 7
25 7 14 0 25 -4 25 -8 0 -4 8 -11 17 -14 16 -6 16 -6 0 12 -21 23 -22 33 -2
26 8 -4 15 -1 15 5 0 14 37 33 44 22 3 -5 -2 -15 -11 -22 -12 -10 -14 -10 -9
-1 4 6 3 12 -2 12 -16 0 -21 -40 -6 -54 20 -20 -6 -28 -31 -10 -25 18 -35 18
-35 -2 0 -8 -5 -12 -10 -9 -6 4 -8 11 -4 16 3 6 -3 5 -14 -2 -16 -10 -18 -17
-11 -31 7 -14 6 -18 -6 -18 -8 0 -15 9 -15 20 0 11 -5 20 -11 20 -5 0 -7 -6
-3 -12 4 -7 -2 -4 -14 6 -19 17 -22 17 -22 3 0 -10 -4 -17 -10 -18 -46 -5 -55
-2 -61 21 -5 16 -7 19 -8 8 -1 -10 -4 -18 -9 -18 -12 0 -57 88 -49 97 4 4 10
-3 14 -15 6 -24 11 -26 33 -12 12 8 12 10 1 10 -11 0 -11 3 -1 15 7 8 18 15
24 15 6 0 5 -4 -3 -9 -12 -8 -13 -12 -1 -25 7 -9 10 -19 6 -23 -3 -3 -6 -1 -6
6 0 7 -4 9 -10 6 -16 -10 -11 -21 10 -22 13 -1 22 6 26 23 3 13 13 24 21 24
10 0 13 6 9 16 -6 14 -4 15 9 4 9 -8 12 -16 6 -19 -5 -4 -3 -14 6 -26 10 -14
14 -15 13 -5 -5 39 0 51 23 50 35 -3 43 0 27 10 -8 5 -10 10 -4 10 6 0 18 -8
25 -17z m-7338 -154 c27 0 36 -3 24 -7 -9 -4 17 -7 58 -7 48 0 78 -4 83 -12 4
-7 18 -16 31 -21 23 -8 22 -9 -13 -33 -20 -13 -36 -29 -36 -36 0 -6 -13 -20
-30 -29 -20 -13 -29 -25 -28 -41 2 -13 7 -23 13 -23 20 0 -21 -20 -42 -20 -15
0 -21 -5 -17 -14 4 -9 -12 -18 -55 -29 l-61 -15 -2 62 c-1 33 -3 81 -5 106 -5
75 6 133 24 126 8 -3 33 -6 56 -7z m3957 -181 c0 -7 -12 -26 -26 -43 -50 -57
-55 -70 -44 -101 6 -16 8 -44 5 -64 -9 -48 -53 -120 -74 -120 -9 0 -22 -9 -29
-20 -7 -12 -17 -18 -22 -15 -6 4 3 17 19 30 15 14 34 38 41 55 7 16 16 28 20
25 9 -6 23 25 15 33 -3 3 -5 0 -5 -7 0 -27 -18 1 -24 38 -4 29 -15 47 -39 66
-39 29 -58 31 -117 10 -23 -8 -46 -13 -50 -10 -5 3 -12 0 -16 -6 -5 -8 -3 -9
5 -5 7 5 -4 -13 -23 -39 -38 -49 -47 -97 -26 -136 14 -24 64 -51 115 -60 l40
-6 -47 -2 c-27 0 -48 4 -48 9 0 6 -3 9 -7 8 -5 -1 -19 4 -32 11 -13 7 -38 11
-56 8 -23 -4 -34 0 -42 12 -13 20 -1 47 16 37 6 -4 11 -4 10 1 -2 9 3 23 31
93 12 28 25 44 34 44 9 -1 14 2 11 6 -10 15 37 59 90 86 44 21 65 25 97 21 32
-4 48 -1 69 14 51 36 109 50 109 27z m2861 -29 c11 -6 18 -17 15 -24 -3 -9 0
-12 9 -9 43 17 57 -71 15 -94 -25 -13 -25 -13 8 -9 22 2 32 -1 32 -10 0 -7 -5
-13 -11 -13 -5 0 -7 -4 -4 -10 4 -6 -8 -10 -29 -10 -19 0 -38 -5 -42 -11 -4
-8 -9 -7 -15 2 -7 12 -9 12 -9 0 0 -11 -5 -10 -20 4 -23 20 -23 24 -11 44 8
13 12 13 27 0 16 -13 17 -12 10 11 -4 14 -8 33 -9 43 -1 12 -10 17 -30 17 -16
0 -26 -4 -22 -10 3 -5 -1 -10 -9 -10 -26 0 -19 47 11 75 30 27 53 31 84 14z
m-8659 -42 c9 -1 15 -3 13 -5 -6 -7 64 -52 80 -52 15 0 97 -25 130 -40 11 -5
39 -12 63 -15 38 -6 41 -9 26 -19 -12 -9 -14 -15 -5 -20 8 -5 4 -14 -13 -27
-13 -10 -28 -19 -33 -19 -5 0 -16 -11 -23 -25 -7 -14 -20 -25 -27 -25 -16 0
-113 -96 -113 -112 0 -6 -18 -26 -40 -45 -22 -19 -37 -40 -33 -46 3 -5 1 -7
-4 -4 -6 4 -13 0 -17 -8 -8 -22 -24 -18 -31 8 -4 12 -17 38 -30 57 -30 46 -63
142 -89 260 -30 134 -17 155 84 143 25 -3 53 -6 62 -6z m14912 -162 c-16 -13
-16 -14 -1 -9 10 4 17 1 17 -7 0 -20 -71 -159 -81 -159 -5 0 -9 -7 -9 -15 0
-8 -4 -15 -10 -15 -5 0 -10 -6 -10 -14 0 -20 -79 -112 -93 -108 -7 2 -9 0 -5
-4 11 -10 -12 -35 -25 -27 -5 3 -7 1 -3 -5 10 -17 -88 -114 -108 -106 -9 3
-16 1 -16 -6 0 -6 5 -8 13 -4 6 4 4 -2 -6 -13 -11 -13 -26 -19 -38 -16 -11 3
-19 0 -19 -8 0 -7 -3 -9 -6 -6 -4 4 -20 -5 -36 -18 -16 -14 -36 -25 -44 -25
-8 0 -14 -5 -14 -11 0 -12 43 -1 48 12 2 5 11 9 20 9 10 0 3 -9 -18 -24 -32
-22 -36 -23 -53 -8 -12 11 -16 24 -12 42 3 14 2 20 -2 14 -9 -13 -47 -2 -59
17 -4 7 -3 10 4 5 6 -3 17 0 25 8 8 8 16 13 19 11 2 -2 5 5 6 15 4 42 6 50 10
45 7 -6 32 15 32 27 0 5 -5 6 -12 2 -7 -4 -8 -3 -4 4 4 7 14 12 21 12 15 0 42
40 28 40 -4 0 -3 4 2 8 6 4 18 20 28 35 11 16 23 25 30 21 7 -4 9 -3 5 1 -5 5
9 19 30 32 20 14 29 22 19 19 -11 -3 -15 -2 -12 4 3 6 16 10 27 10 12 0 19 3
16 6 -6 6 32 49 43 49 3 0 13 8 23 18 10 9 34 30 54 45 21 15 39 29 42 32 5 5
83 53 125 77 27 15 33 6 9 -12z m-13958 -239 c3 -8 -6 -28 -20 -43 -14 -15
-26 -22 -26 -15 0 8 7 20 15 28 8 9 15 20 15 25 0 6 -12 -4 -27 -22 -16 -18
-27 -42 -25 -53 2 -15 0 -17 -6 -8 -9 14 -26 -13 -36 -59 -3 -14 -17 -38 -31
-53 -23 -25 -25 -25 -25 -7 0 12 3 20 8 18 4 -1 8 2 9 6 1 4 8 18 16 30 19 30
38 87 28 87 -4 0 -13 -11 -19 -24 -6 -13 -18 -23 -28 -23 -11 1 -21 -10 -28
-30 -13 -38 -32 -59 -21 -23 7 22 6 23 -9 11 -14 -12 -16 -10 -17 20 l-1 34
-12 -37 c-18 -60 -26 -55 -26 19 l0 70 113 31 c130 35 146 37 153 18z m-4233
-90 c3 -7 2 -17 -3 -22 -5 -5 -10 -20 -12 -34 -2 -20 -8 -25 -29 -23 -22 1
-26 -2 -22 -18 6 -22 4 -23 -31 -9 -17 6 -26 6 -26 0 0 -6 5 -10 10 -10 6 0
10 -4 10 -10 0 -17 -39 -11 -57 9 -13 16 -21 18 -36 10 -10 -6 -24 -8 -31 -6
-7 3 -18 -3 -24 -13 -7 -12 -18 -16 -32 -13 -11 3 -20 0 -20 -6 0 -6 5 -11 10
-11 6 0 10 -4 10 -9 0 -4 -11 -6 -25 -3 -14 2 -25 11 -25 18 0 8 -8 14 -17 14
-16 0 -16 -2 -3 -11 13 -9 12 -10 -2 -5 -14 4 -17 -1 -14 -29 3 -39 1 -41 -20
-20 -9 8 -25 15 -37 15 -16 0 -5 11 38 39 33 22 63 37 67 35 5 -3 8 0 8 7 0 8
4 8 15 -1 12 -10 18 -10 30 0 8 7 15 18 15 25 0 7 7 16 16 19 12 4 15 2 10 -9
-3 -9 0 -15 10 -15 12 0 15 6 10 24 -6 23 14 43 28 29 12 -12 6 -25 -8 -20
-10 4 -13 1 -10 -7 4 -11 13 -11 40 -3 19 6 34 15 34 20 0 17 43 47 59 42 9
-2 23 0 31 5 20 13 27 12 33 -4z m13220 -18 c19 -18 47 -91 47 -122 0 -3 -13
-6 -30 -6 -24 0 -30 4 -30 23 -1 19 -2 20 -10 5 -24 -41 -70 18 -70 90 0 30 2
32 34 32 23 0 44 -8 59 -22z m4822 -15 c-5 -10 -8 -20 -7 -23 0 -3 -13 -15
-29 -25 -16 -11 -27 -25 -24 -32 2 -7 0 -15 -5 -18 -6 -4 -10 -1 -10 5 0 6
-43 -28 -95 -77 -89 -83 -95 -90 -93 -125 2 -43 -24 -78 -56 -77 -12 0 -15 3
-8 6 18 7 15 22 -5 18 -10 -1 -17 -9 -15 -17 1 -10 -8 -18 -25 -21 -16 -3 -38
-8 -50 -12 -15 -5 -23 -3 -23 4 0 7 4 10 8 7 4 -2 14 -1 22 4 12 7 11 10 -3
16 -10 4 -23 2 -30 -5 -6 -6 -19 -11 -29 -11 -10 0 -18 -4 -18 -9 0 -5 10 -7
22 -3 13 3 19 1 15 -5 -4 -6 -23 -14 -42 -17 -20 -4 -33 -11 -30 -17 4 -5 1
-9 -4 -9 -14 0 -14 16 0 42 16 30 5 31 -25 3 -15 -14 -37 -25 -49 -24 -21 1
-20 2 3 9 30 9 28 10 -30 15 -33 2 -39 1 -22 -6 22 -9 31 -29 11 -29 -5 0 -7
5 -4 10 3 6 0 10 -7 10 -7 0 -14 -11 -14 -24 -2 -22 1 -24 23 -15 14 5 28 7
31 5 5 -6 -43 -27 -56 -25 -4 1 -18 -3 -32 -7 l-25 -8 30 -6 c17 -4 35 -3 40
1 6 4 30 10 55 14 38 7 43 6 32 -7 -6 -8 -9 -18 -5 -22 16 -15 -25 -26 -92
-25 -85 3 -105 7 -105 25 0 8 -9 14 -20 14 -11 0 -20 -5 -20 -11 0 -7 -8 -18
-17 -26 -16 -13 -16 -13 5 -3 12 6 22 15 22 20 0 6 5 10 11 10 5 0 8 -4 4 -9
-3 -5 5 -13 17 -17 17 -6 4 -11 -54 -20 -42 -6 -110 -22 -150 -35 -40 -12 -87
-23 -105 -23 -17 -1 -29 -3 -27 -6 7 -6 -178 -41 -192 -36 -6 2 -11 -3 -11
-11 0 -13 12 -14 71 -9 46 3 64 2 51 -4 -11 -5 -32 -9 -46 -9 -38 -1 -44 -26
-7 -27 17 -1 24 2 18 6 -13 8 81 26 113 22 10 -1 15 3 12 8 -6 10 25 15 73 12
14 0 20 3 16 10 -5 8 -1 9 10 5 10 -4 35 -7 57 -7 21 0 39 -4 39 -10 0 -5 -6
-7 -12 -5 -7 3 -26 1 -43 -4 -23 -7 -14 -9 42 -7 44 0 71 5 69 11 -2 6 -13 9
-25 8 -11 -2 -21 2 -21 7 0 5 17 9 38 8 20 0 48 2 62 6 l25 7 -23 -14 c-22
-13 -21 -13 15 -13 21 0 49 -3 63 -7 l25 -8 -25 15 c-23 14 -23 15 -5 16 11 1
14 4 8 7 -25 9 -13 23 15 17 18 -4 23 -3 13 4 -10 7 -1 14 35 26 61 21 67 20
61 -4 -4 -15 0 -20 14 -20 10 0 19 5 19 10 0 6 -4 10 -10 10 -5 0 -10 8 -10
18 0 14 4 13 19 -7 16 -20 24 -23 59 -19 38 6 40 5 29 -13 -6 -10 -8 -21 -4
-25 10 -11 17 -1 19 29 2 27 21 36 33 17 8 -13 25 -3 25 13 0 8 -3 8 -9 -2 -5
-8 -11 -9 -15 -3 -7 12 -1 17 37 26 15 4 33 3 40 -1 14 -9 67 -11 67 -2 0 4
-10 14 -22 22 l-23 16 25 0 c14 0 44 2 68 4 23 2 42 -1 42 -5 0 -4 17 -8 38
-8 27 0 33 3 22 10 -17 11 -6 13 28 4 18 -5 22 -13 22 -45 l0 -39 -57 4 c-32
2 -41 1 -20 -1 37 -4 37 -5 37 -48 0 -38 2 -43 18 -38 15 6 16 5 1 -9 -8 -9
-35 -19 -60 -23 -35 -6 -40 -9 -24 -16 11 -4 29 -8 40 -8 l20 0 -20 10 c-19 8
-19 9 -1 6 11 -1 21 -7 23 -13 5 -15 -43 -24 -56 -11 -8 8 -11 6 -11 -7 0 -13
-5 -16 -17 -12 -9 4 -20 1 -24 -6 -7 -10 -11 -10 -21 0 -6 6 -19 12 -28 12
-13 0 -13 -2 0 -10 8 -5 11 -12 7 -16 -3 -4 -14 -1 -23 7 -18 15 -96 21 -88 7
3 -5 -5 -6 -19 -3 -15 4 -28 2 -32 -6 -5 -7 -4 -10 1 -6 6 3 16 1 24 -4 11 -7
9 -8 -8 -6 -13 2 -28 10 -32 17 -5 8 -12 11 -16 7 -4 -3 -1 -13 6 -22 14 -17
65 -20 75 -5 8 14 45 13 45 -1 0 -6 -6 -9 -14 -6 -7 3 -18 1 -23 -4 -5 -5 -24
-11 -41 -12 -18 -1 -32 -5 -32 -9 0 -15 -29 -8 -39 9 -5 10 -13 14 -18 9 -4
-5 -2 -11 5 -13 20 -8 14 -26 -8 -20 -10 3 -21 0 -23 -6 -2 -6 -19 -11 -39
-11 -20 -1 -34 -5 -31 -10 4 -5 -6 -6 -21 -2 -18 4 -25 3 -21 -4 3 -5 -1 -10
-9 -10 -8 0 -18 5 -21 10 -3 6 -12 10 -18 9 -9 0 -9 -2 1 -6 6 -2 12 -9 12
-15 0 -6 -8 -7 -17 -4 -9 4 -19 2 -22 -3 -8 -12 -271 -82 -283 -75 -4 3 -8 1
-8 -5 0 -9 -71 -27 -97 -24 -7 0 -13 -3 -13 -7 0 -11 -108 -32 -121 -24 -7 4
-9 3 -5 -4 7 -11 -51 -28 -62 -17 -3 3 -1 15 6 25 9 15 9 18 -1 14 -14 -5 -42
80 -32 97 4 5 2 9 -3 9 -4 0 -14 24 -21 52 -14 53 -87 328 -97 361 -4 12 0 17
15 17 12 0 21 -4 21 -10 0 -5 4 -10 10 -10 5 0 7 6 4 14 -3 8 7 18 28 25 18 7
41 17 51 22 10 6 28 7 40 4 17 -5 19 -4 7 4 -13 9 -13 11 2 11 9 0 19 -6 21
-12 4 -9 8 -10 14 -2 4 6 15 14 23 18 8 3 5 4 -7 2 -13 -2 -23 0 -23 4 0 5 20
12 45 16 26 3 52 12 58 19 7 7 24 16 37 20 14 4 35 13 47 21 18 11 22 11 27
-1 3 -8 13 -15 23 -15 17 1 17 2 2 13 -16 12 -15 15 8 35 14 12 27 22 30 22
11 0 42 -46 43 -62 0 -10 5 -18 11 -18 5 0 7 5 4 10 -10 17 14 38 35 33 11 -3
20 0 20 6 0 6 -10 11 -22 11 -27 0 -16 12 15 16 19 2 22 -3 23 -29 0 -18 -4
-35 -10 -39 -6 -4 12 -6 41 -5 28 1 49 5 46 10 -2 4 7 7 20 7 15 0 31 10 41
25 9 14 23 25 31 25 18 0 20 -17 3 -23 -7 -2 -10 -7 -6 -11 7 -9 49 11 60 28
5 8 11 7 20 -2 9 -9 9 -12 -5 -12 -9 0 -17 -4 -17 -10 0 -5 6 -10 13 -10 8 0
14 -7 15 -15 1 -8 3 -22 4 -30 1 -11 5 -12 15 -4 8 7 10 16 4 23 -11 14 -10
46 1 46 4 0 8 8 8 18 0 11 -3 13 -8 6 -5 -9 -11 -8 -21 3 -12 13 -10 14 15 11
22 -2 29 1 32 17 2 12 0 16 -5 9 -10 -13 -43 -14 -43 -1 0 5 7 7 15 3 19 -7
19 8 0 28 -14 13 -13 15 4 13 10 0 17 -6 14 -13 -2 -6 3 -14 12 -18 13 -5 15
-1 10 17 -4 15 -3 18 3 9 7 -11 10 -10 16 3 8 23 9 22 -15 28 -12 3 -19 12
-17 19 5 15 48 20 48 6 0 -5 -9 -6 -20 -3 -11 3 -20 2 -20 -3 0 -5 9 -12 21
-15 14 -4 23 1 29 16 5 12 9 18 9 14 1 -5 -17 -47 -40 -94 -49 -102 -48 -133
4 -128 86 8 273 141 424 302 83 89 105 105 88 66z m-12884 -7 c-15 -18 -3 -69
14 -63 7 3 17 -14 25 -46 7 -29 15 -58 18 -66 3 -9 1 -12 -6 -7 -7 4 -12 1
-12 -8 0 -23 11 -46 21 -41 13 8 52 -134 41 -148 -11 -14 3 -61 16 -53 5 3 18
-29 30 -71 14 -50 18 -79 11 -84 -6 -3 -7 -18 -4 -32 6 -22 4 -25 -14 -20 -12
3 -24 17 -27 30 -6 22 -10 24 -38 18 -17 -4 -38 -7 -47 -7 -21 1 -13 -49 11
-76 11 -11 16 -22 13 -25 -7 -7 -32 16 -27 24 2 4 -3 13 -12 20 -12 10 -15 10
-12 -1 2 -9 -13 -18 -42 -24 -35 -9 -45 -15 -42 -28 2 -10 -1 -18 -7 -18 -6 0
-7 -7 -4 -17 4 -9 2 -14 -3 -10 -6 3 -16 2 -24 -3 -11 -7 -11 -12 -2 -23 7 -7
9 -16 7 -19 -3 -3 -8 -16 -10 -28 -2 -12 -1 -19 3 -15 4 4 12 -10 18 -32 6
-23 18 -39 29 -41 10 -3 15 0 11 7 -7 11 17 16 57 13 10 -1 15 3 12 8 -4 7 2
9 18 5 14 -4 28 -2 31 3 3 6 40 21 82 33 42 12 78 29 81 37 5 11 7 11 14 0 13
-19 11 -28 -5 -22 -10 4 -12 -2 -9 -20 5 -26 4 -26 -39 -30 -7 -1 -16 -5 -20
-11 -5 -6 -11 -6 -18 1 -14 14 -150 -14 -144 -30 6 -17 -127 -58 -143 -44 -19
15 -16 31 7 46 29 18 25 32 -9 32 -25 0 -30 5 -36 33 -5 27 -119 457 -162 615
-9 33 -19 50 -24 45 -6 -6 -4 -28 5 -56 12 -41 12 -48 0 -55 -11 -6 -12 -14
-5 -33 5 -13 10 -18 10 -11 2 25 19 11 25 -20 3 -18 8 -42 10 -53 2 -11 9 -31
14 -46 7 -17 7 -31 0 -43 -7 -13 -7 -17 0 -12 11 6 36 -48 46 -104 6 -27 5
-31 -4 -20 -9 12 -10 10 -8 -10 2 -14 8 -24 14 -23 7 1 9 -9 7 -25 -4 -22 -2
-24 7 -12 9 12 11 10 7 -12 -2 -15 -1 -25 3 -23 13 8 21 -57 9 -71 -14 -17 20
-90 39 -86 8 1 11 -2 8 -7 -4 -5 0 -27 8 -48 13 -36 86 -295 100 -356 4 -18 3
-26 -3 -23 -5 4 -13 2 -16 -4 -8 -13 14 -42 25 -35 9 5 30 -48 30 -74 0 -9 8
-21 18 -28 16 -9 21 -39 12 -63 -1 -3 -2 -9 -1 -13 1 -5 -3 -6 -9 -2 -5 3 -10
1 -10 -6 0 -7 -3 -9 -7 -5 -4 4 -7 24 -6 44 l2 37 -10 -32 c-12 -40 -22 -44
-13 -5 4 20 3 23 -5 12 -11 -15 -10 -17 -42 73 -15 42 -26 47 -31 15 -2 -13
-19 28 -42 98 -22 65 -43 123 -48 129 -4 5 -9 18 -9 30 -1 16 -2 17 -6 3 -6
-25 -23 -23 -23 3 0 11 -4 17 -10 14 -6 -4 -10 5 -10 19 0 14 5 26 10 26 6 0
10 8 10 18 0 14 -2 15 -10 2 -5 -8 -10 -12 -12 -10 -10 14 -32 82 -43 132 -7
31 -16 61 -19 66 -3 6 -8 28 -11 49 -3 21 -11 61 -20 88 -9 32 -11 53 -5 59 7
7 10 1 10 -15 0 -13 7 -33 15 -43 18 -23 19 -14 4 34 -5 19 -23 88 -40 153
-16 65 -43 166 -59 224 -31 111 -37 153 -20 153 6 0 10 -7 10 -17 0 -9 3 -13
7 -10 3 4 0 39 -7 77 -16 85 -7 104 34 72 20 -15 33 -18 59 -12 36 8 248 65
317 85 62 19 76 19 61 1z m4306 -98 c11 -13 23 -31 27 -41 3 -11 15 -21 26
-24 11 -3 20 -9 20 -14 0 -5 16 -9 35 -9 19 0 35 -4 35 -10 0 -5 -6 -7 -14 -4
-9 4 -13 -3 -13 -20 0 -18 5 -26 17 -26 18 0 78 -106 66 -117 -3 -4 -6 -1 -6
6 0 8 -5 9 -16 3 -12 -7 -38 2 -92 30 -90 46 -91 46 -58 44 13 0 24 -3 23 -6
-1 -3 1 -6 6 -7 4 -2 7 -1 7 2 0 3 0 10 0 15 0 6 -7 10 -15 10 -19 0 -20 26
-1 33 9 4 13 1 10 -6 -2 -7 6 -13 22 -14 19 -1 23 2 13 7 -11 7 -10 10 3 15 9
4 14 13 11 21 -5 14 -24 20 -22 7 3 -21 -2 -34 -11 -28 -6 4 -8 10 -5 15 3 5
0 12 -6 16 -8 4 -9 3 -5 -4 4 -8 0 -12 -11 -12 -13 0 -19 8 -21 26 -1 14 -7
33 -13 42 -8 13 -9 8 -4 -20 3 -23 2 -38 -4 -38 -13 0 -23 17 -13 22 5 1 5 14
1 28 l-6 25 -10 -25 c-13 -30 0 -60 26 -60 23 0 31 -8 24 -26 -7 -19 -30 -18
-37 3 -6 15 -9 15 -17 3 -9 -12 -10 -11 -5 4 4 10 2 24 -3 30 -6 7 -7 27 -2
48 5 21 6 39 3 42 -3 4 0 6 6 6 7 0 12 -5 12 -12 0 -6 3 -8 6 -5 10 10 -17 38
-29 30 -6 -3 -7 -1 -3 5 10 17 20 15 43 -10z m-5203 -43 c-4 -8 -1 -15 5 -15
6 0 11 7 11 16 0 9 6 14 13 11 6 -2 11 -12 11 -21 -1 -9 3 -16 8 -16 6 0 8 -9
5 -20 -3 -11 -2 -20 3 -20 4 0 11 -12 14 -27 4 -16 9 -35 12 -44 3 -11 -9 -18
-46 -28 -27 -7 -52 -17 -56 -22 -3 -5 -14 -9 -24 -9 -10 0 -33 -8 -52 -17 -59
-29 -68 -33 -78 -33 -6 0 -10 6 -9 13 3 21 -14 123 -19 109 -2 -8 -10 -3 -18
14 -14 26 -11 65 3 51 3 -4 14 -2 24 4 15 8 18 6 13 -8 -2 -10 1 -8 8 5 7 15
18 22 30 19 10 -3 16 -1 13 3 -3 4 22 11 54 15 37 4 62 12 65 21 3 8 8 14 10
14 3 0 3 -7 0 -15z m12993 -22 c23 -25 30 -40 23 -47 -18 -18 -11 -26 20 -19
19 3 30 1 30 -6 0 -6 -9 -11 -20 -11 -11 0 -20 -5 -20 -11 0 -5 -5 -7 -12 -3
-6 4 -16 0 -23 -9 -11 -15 -14 -15 -30 3 -10 11 -16 21 -14 23 2 1 13 7 23 13
45 24 27 32 -79 33 l-105 1 0 -35 c0 -19 -5 -35 -11 -35 -5 0 -7 -5 -3 -12 5
-8 0 -9 -17 -5 -21 6 -91 -6 -129 -21 -8 -3 -20 -6 -26 -7 -6 0 -18 -6 -26
-13 -26 -21 -120 -39 -187 -36 -36 2 -70 -1 -77 -7 -8 -7 -13 -2 -18 16 -4 14
-4 30 -1 35 3 4 0 10 -7 12 -19 7 1 28 28 28 13 0 24 5 24 11 0 8 5 7 16 -2
15 -12 13 -14 -12 -21 -15 -4 -30 -5 -34 -3 -4 2 -7 -10 -8 -27 0 -18 2 -27 6
-22 4 6 16 13 27 17 11 3 38 13 60 21 22 8 58 16 80 16 l40 2 -32 9 c-18 5
-35 14 -38 19 -8 12 58 24 95 16 29 -5 78 9 91 28 4 5 33 6 65 3 44 -5 64 -3
78 8 11 8 37 15 58 15 52 0 48 20 -4 21 -30 2 -18 5 40 12 45 5 82 14 82 18 0
17 14 9 47 -28z m-3941 -111 c17 -11 44 -89 44 -125 l0 -32 -19 24 c-12 16
-20 20 -25 12 -4 -6 -12 -9 -17 -6 -5 4 -9 -1 -9 -9 0 -20 -24 -21 -39 -3 -6
8 -14 29 -17 48 -4 19 -11 39 -15 45 -11 14 18 41 51 47 14 2 27 5 30 5 3 1
10 -2 16 -6z m111 -341 c24 -31 38 -90 26 -108 -11 -15 -90 -20 -105 -5 -9 9
-7 13 5 18 9 3 17 11 17 16 0 6 -6 6 -14 -1 -11 -9 -16 -9 -22 1 -5 7 -9 15
-9 18 -1 3 -5 15 -9 28 -10 30 7 50 47 55 18 2 35 5 38 5 3 1 15 -11 26 -27z
m4882 -148 c11 -9 18 -19 16 -23 -2 -3 6 -7 17 -7 11 -1 30 -11 42 -22 12 -12
27 -21 34 -21 8 0 8 -8 0 -31 -14 -41 1 -57 37 -41 21 10 25 10 19 0 -6 -10
-5 -10 7 -1 12 10 19 10 35 -1 10 -7 33 -16 49 -20 19 -4 25 -3 17 2 -11 7
-10 11 3 16 17 6 95 -10 95 -20 0 -4 -7 -4 -15 0 -13 4 -14 2 -5 -15 9 -15 7
-25 -10 -46 -15 -19 -17 -30 -10 -37 8 -8 13 -7 20 4 8 12 10 12 16 -3 8 -22
-3 -50 -16 -42 -6 4 -9 1 -8 -6 3 -14 -50 -21 -67 -9 -18 12 -76 20 -70 10 3
-6 13 -10 21 -10 8 0 14 -4 14 -10 0 -5 6 -10 14 -10 7 0 20 -8 27 -17 9 -11
10 -14 2 -9 -20 11 -193 12 -193 1 0 -5 3 -10 8 -11 40 -3 91 -18 86 -25 -3
-5 2 -9 11 -9 9 0 13 5 9 11 -4 8 -1 8 12 1 20 -10 26 -12 46 -12 6 0 -8 -20
-32 -44 l-43 -44 -71 3 c-39 2 -86 8 -103 13 -31 10 -46 1 -23 -13 6 -3 10
-11 10 -17 0 -7 -6 -6 -15 2 -8 7 -15 8 -15 2 0 -14 26 -33 34 -25 4 4 4 0 0
-10 -5 -14 -9 -15 -20 -6 -17 14 -18 -2 -1 -20 10 -11 9 -13 -5 -8 -10 4 -18
2 -18 -3 0 -6 4 -10 9 -10 5 0 8 -11 7 -24 l-1 -24 -30 21 c-16 11 -49 35 -72
54 -39 31 -43 32 -90 24 -58 -11 -140 -3 -147 14 -2 7 5 16 17 19 12 3 18 8
14 12 -4 4 -1 14 6 22 7 9 7 13 1 9 -8 -4 -11 7 -11 36 0 45 57 163 72 149 4
-4 6 1 2 10 -7 20 23 34 35 16 6 -9 8 -7 6 7 -4 49 0 54 34 44 36 -10 52 -3
25 12 -23 14 -22 39 3 39 11 0 20 -5 20 -11 0 -5 4 -7 10 -4 5 3 19 1 31 -6
16 -8 20 -8 17 1 -2 7 -27 22 -56 34 l-52 22 20 22 c22 24 40 29 40 11 0 -27
25 2 37 44 13 45 25 57 37 38 3 -5 -1 -23 -10 -40 -9 -17 -13 -37 -11 -44 3
-6 10 3 17 21 7 17 15 32 20 32 4 0 10 9 13 19 3 14 1 18 -9 14 -8 -3 -14 0
-14 6 0 16 27 13 49 -6z m-11329 -362 c0 -4 -6 -13 -12 -20 -11 -10 -10 -11 3
-6 11 4 19 -6 30 -41 15 -50 40 -73 32 -30 -4 21 -2 24 16 19 13 -3 21 -1 21
6 0 7 5 9 11 5 8 -4 7 -9 -2 -15 -12 -8 -12 -10 0 -18 11 -7 11 -9 0 -14 -10
-4 -9 -6 4 -6 10 -1 17 -9 17 -22 0 -18 -4 -20 -27 -15 -18 4 -23 3 -14 -2 13
-9 -39 -28 -171 -63 -55 -15 -66 -9 -97 52 l-21 39 38 16 c20 9 47 20 59 25
13 4 25 21 29 36 3 15 13 34 22 41 13 10 13 12 1 13 -8 1 -3 4 11 8 26 8 50 4
50 -8z m2884 -66 c7 -20 -31 -79 -65 -99 -15 -9 -45 -16 -66 -16 -44 0 -63
-14 -63 -47 0 -18 6 -23 24 -23 18 0 27 -8 35 -31 13 -36 14 -45 5 -36 -4 3
-13 0 -21 -8 -22 -23 -70 -19 -83 6 -9 15 -18 19 -34 15 -22 -5 -22 -3 -18 49
4 50 2 57 -22 76 -14 11 -26 26 -26 33 0 6 -9 19 -20 29 -21 18 -26 42 -11 51
5 3 49 -3 99 -14 50 -11 97 -17 105 -14 8 3 21 -2 30 -10 23 -23 33 -20 68 19
35 38 53 44 63 20z m-4408 -110 c5 -11 11 -12 24 -5 10 6 27 10 37 9 15 0 14
-2 -4 -9 -22 -9 -22 -11 -8 -51 8 -23 15 -49 15 -59 0 -25 -27 -33 -39 -12 -9
14 -10 13 -11 -10 0 -32 -6 -34 -30 -13 -14 13 -28 14 -93 3 -99 -15 -141 -5
-145 37 -2 17 0 27 4 23 4 -5 13 1 21 12 8 11 20 20 28 20 7 0 27 11 43 24 19
17 36 23 50 19 13 -3 28 1 37 11 21 20 64 21 71 1z"/>
</g>
</svg>
